<svg width="75" height="46" viewBox="0 0 75 46" fill="none" xmlns="http://www.w3.org/2000/svg">
<path d="M26.152 18.12C29.864 18.888 32.7013 20.424 34.664 22.728C36.6693 24.9893 37.672 27.7413 37.672 30.984C37.672 33.6293 36.9467 36.0827 35.496 38.344C34.088 40.6053 31.912 42.44 28.968 43.848C26.0667 45.2133 22.4613 45.896 18.152 45.896C14.9947 45.896 11.8587 45.512 8.744 44.744C5.672 43.976 3.00533 42.888 0.744 41.48L5.352 31.944C7.10133 33.1387 9.064 34.056 11.24 34.696C13.4587 35.336 15.6347 35.656 17.768 35.656C19.944 35.656 21.672 35.2507 22.952 34.44C24.232 33.6293 24.872 32.4773 24.872 30.984C24.872 28.0827 22.5893 26.632 18.024 26.632H12.712V18.632L20.712 9.992H3.048V0.199997H35.432V8.136L26.152 18.12ZM74.8265 27.272H64.0105V37.832H54.1545V27.272H43.2745V17.928H54.1545V7.368H64.0105V17.928H74.8265V27.272Z" fill="#C41129"/>
</svg>
