<svg xmlns="http://www.w3.org/2000/svg" width="93" height="81" viewBox="0 0 93 81" fill="none">
  <path fill-rule="evenodd" clip-rule="evenodd" d="M47.3589 0.492507C46.4799 1.1317 42.9876 4.71311 42.4605 5.5159C42.0449 6.14921 42.2259 6.91912 42.8926 7.35533C43.6048 7.82117 44.1983 7.6056 45.5176 6.40192L46.6527 5.36631V10.7157V16.0649L44.1617 17.0179C18.8839 26.6894 18.0026 27.0352 17.5742 27.4526C17.3098 27.7099 17.2519 30.0546 17.14 45.0464C17.0691 54.5598 17.0003 62.3665 16.9875 62.3943C16.9149 62.5518 15.9444 62.2701 10.9654 60.6464L5.47509 58.8559L8.03623 57.6352C10.7775 56.3286 11.1053 55.9869 10.6012 54.9635C9.99812 53.7395 9.42936 53.8309 4.55738 55.9321C-0.00855408 57.9017 -0.0193313 57.909 0.0026301 59.0096C0.0144242 59.5972 0.427827 60.9253 1.19871 62.851C2.74048 66.7034 3.46216 68.1206 3.902 68.1606C5.04196 68.2645 5.78458 67.7759 5.77258 66.9299C5.76852 66.6403 5.3665 65.3527 4.87949 64.0689C4.39227 62.785 4.01445 61.7116 4.03987 61.6836C4.14235 61.5704 8.24934 62.854 30.1817 69.8539C31.4678 70.2645 34.7848 71.3279 37.553 72.2172L42.5858 73.8341V75.0041C42.5858 78.5234 44.9375 81 48.2795 81C51.3344 81 53.5175 78.9694 53.8933 75.7785L54.0283 74.6308L57.2035 73.3841C65.3929 70.1681 79.8024 64.6293 85.4919 62.5102C87.4491 61.7813 89.1334 61.1344 89.2347 61.0729C89.3414 61.0081 89.3575 61.2519 89.2729 61.6524C89.1926 62.0326 89.0752 62.8114 89.012 63.3834C88.9146 64.265 88.963 64.489 89.3296 64.855C89.8638 65.3883 90.8039 65.4138 91.2626 64.9078C91.7002 64.4251 92.7849 60.1495 92.9457 58.2737C93.0958 56.5202 93.2133 56.6199 89.2428 55.1344C85.7428 53.8248 84.3497 53.6819 83.9084 54.5866C83.7193 54.9743 83.6892 55.3252 83.8126 55.703C83.9635 56.165 84.3259 56.3866 86.0562 57.0751C87.191 57.5266 88.1819 57.9581 88.258 58.034C88.4296 58.2055 87.2754 58.7039 83.8643 59.9311C82.4079 60.455 81.149 60.8163 81.0664 60.7341C80.9841 60.6519 80.8708 53.1444 80.8149 44.0508C80.7264 29.6513 80.6738 27.4919 80.4082 27.322C80.0279 27.0789 75.8484 25.442 72.4777 24.2162C71.0797 23.708 65.6808 21.725 60.4803 19.8099C55.2797 17.8948 50.7272 16.2303 50.3638 16.111L49.7029 15.894V10.4476C49.7029 7.45194 49.7641 5.00114 49.8392 5.00114C49.914 5.00114 50.5915 5.59486 51.3445 6.32052C52.2582 7.20086 52.8765 7.63991 53.2033 7.63991C53.9164 7.63991 54.5832 6.93211 54.5832 6.17519C54.5832 5.62876 54.1999 5.1546 51.8889 2.84283C50.3727 1.32595 48.9698 0.0944598 48.6807 0.0264608C48.3065 -0.0618363 47.9466 0.0652304 47.3589 0.492507ZM54.7866 20.8613C57.6991 21.929 59.2047 22.484 66.174 25.0582C68.5785 25.9464 71.4839 27.0194 72.6302 27.4426C73.7765 27.8658 74.7145 28.27 74.7145 28.3406C74.7145 28.4115 72.3583 29.3496 69.4783 30.4256C57.9352 34.7384 50.3963 37.5349 50.0588 37.6293C49.7245 37.7226 49.7029 37.2738 49.7029 30.2257C49.7029 26.0993 49.7619 21.8933 49.8341 20.8794L49.965 19.0359L51.0033 19.4453C51.5743 19.6706 53.2767 20.3078 54.7866 20.8613ZM46.5779 37.4176C46.5346 37.461 44.2687 36.6369 41.543 35.5865C25.8388 29.5343 23.0898 28.4407 23.2305 28.3002C23.3903 28.1407 27.3732 26.5814 36.0787 23.2701C38.8188 22.228 42.296 20.8973 43.8059 20.3131L46.551 19.2509L46.6039 28.2947C46.6332 33.269 46.6214 37.3741 46.5779 37.4176ZM33.0285 35.4397C38.5646 37.5765 43.872 39.6234 44.8226 39.9881L46.551 40.6513L46.6027 55.2526L46.6543 69.8539L45.3794 70.5395L44.1044 71.225L38.9223 69.5575C36.0722 68.6404 30.6976 66.9185 26.979 65.7313L20.2177 63.5724V47.21C20.2177 38.2106 20.2716 30.7936 20.3375 30.7281C20.477 30.5888 20.0438 30.4279 33.0285 35.4397ZM77.8332 35.9051C78.0756 45.5476 78.001 61.9635 77.7139 62.1882C77.5742 62.2977 76.3616 62.8053 75.0195 63.3164C73.6774 63.8277 69.8342 65.3174 66.479 66.6271C63.1238 67.9367 58.6857 69.6633 56.6167 70.4638L52.8548 71.9194L52.1713 71.3297C51.7953 71.0054 51.0857 70.545 50.594 70.3067L49.7003 69.8731L49.7523 55.3784L49.8046 40.8837L50.5163 40.6115C50.9077 40.4617 56.9014 38.2315 63.8355 35.6555C70.7696 33.0794 76.626 30.889 76.8496 30.788C77.0733 30.6871 77.356 30.5982 77.478 30.5907C77.6293 30.5811 77.7419 32.2645 77.8332 35.9051Z" fill="#2D4F92"/>
</svg>