<svg xmlns="http://www.w3.org/2000/svg" width="86" height="85" viewBox="0 0 86 85" fill="none">
  <path fill-rule="evenodd" clip-rule="evenodd" d="M0.428467 42.4405V84.881H42.8689H85.3094V42.4405V0H42.8689H0.428467V42.4405Z" fill="#2D4F92"/>
  <path fill-rule="evenodd" clip-rule="evenodd" d="M0.428467 42.4405V84.881H42.8689H85.3094V42.4405V0H42.8689H0.428467V42.4405ZM70.9507 7.24798C72.0951 7.36267 72.1732 7.64909 71.343 8.68606C71.0772 9.01813 70.7213 9.50195 70.5521 9.76131C70.1595 10.3633 69.3707 11.679 69.3707 11.7319C69.3707 11.754 69.2282 12.0837 69.054 12.4644C68.7206 13.193 68.5332 13.7068 68.056 15.2003C67.6597 16.4402 67.521 17.0894 66.7295 21.4089C66.6772 21.6942 66.4621 22.9827 66.2515 24.2725C65.5322 28.6752 64.911 31.1007 63.8444 33.6694C63.4078 34.7211 61.9111 37.6032 61.3712 38.4322C60.1484 40.3095 57.4216 43.3095 55.884 44.4688C55.5469 44.7229 55.2498 44.9552 55.2238 44.9849C55.1979 45.0145 54.8796 45.2538 54.5165 45.5165C53.1465 46.5076 50.782 47.8628 49.2822 48.5164C48.945 48.6635 48.4994 48.8593 48.2919 48.9517C47.7714 49.1835 44.9566 50.1204 44.095 50.3486C43.2089 50.5834 41.2123 51.0102 40.464 51.1247C37.4066 51.593 35.4398 51.7227 32.4645 51.6524C30.395 51.6036 28.0434 51.4131 27.9142 51.2838C27.8908 51.2604 28.1479 50.7813 28.4855 50.2191C28.8231 49.6569 29.0994 49.1842 29.0994 49.1685C29.0994 49.1321 31.6262 45.3808 31.7479 45.2364C31.798 45.1769 32.1956 44.6403 32.6315 44.0438C33.0676 43.4473 33.4612 42.9168 33.5064 42.8649C33.5516 42.813 33.6925 42.6185 33.8196 42.4327C33.9467 42.2469 34.2074 41.9074 34.399 41.6782C34.5905 41.4491 35.1628 40.7311 35.6708 40.0827C36.8037 38.6363 36.7641 38.6865 36.8852 38.5468C36.9399 38.4838 37.5529 37.7532 38.2476 36.9232C38.9423 36.0933 40.165 34.6715 40.9648 33.7638C41.7645 32.856 42.511 32.0072 42.6238 31.8775C42.7365 31.7478 43.1668 31.2783 43.5798 30.8341C43.9929 30.3899 44.7763 29.5411 45.3209 28.9479C48.5714 25.4068 54.575 19.4693 59.182 15.2394C59.5727 14.8808 59.9347 14.5412 59.9866 14.4849C60.0385 14.4286 60.3696 14.1331 60.7224 13.828C61.4019 13.2407 61.4865 13.0138 61.1175 12.7701C60.9044 12.6293 61.0073 12.5872 59.6743 13.3616C58.7231 13.9143 55.3598 16.064 54.5425 16.6418C54.2456 16.8516 53.5729 17.3204 53.0476 17.6835C49.9742 19.8077 47.3684 22.026 43.9525 25.4258C41.5399 27.8271 38.6277 31.0705 37.3988 32.7248C37.2692 32.8994 36.9906 33.2576 36.7799 33.5209C36.2634 34.1659 34.7708 36.1504 34.3627 36.7346C34.1816 36.9939 33.7419 37.6093 33.3858 38.1021C33.0295 38.5949 32.0202 40.0803 31.1428 41.403C29.5044 43.8731 29.1981 44.3439 28.4014 45.6162C27.8792 46.4502 27.224 47.4949 27.049 47.7723C26.9848 47.8743 26.8446 48.1197 26.7375 48.3175C26.5239 48.7124 26.3861 48.7251 26.185 48.3685C26.0681 48.1612 26.0768 48.0587 26.2599 47.48C26.7426 45.9557 26.9192 43.7426 26.741 41.4502C26.4093 37.1806 26.4908 34.4896 27.0307 31.8801C27.2384 30.8767 27.7366 29.0057 27.8728 28.7181C27.922 28.6143 28.0649 28.2504 28.1903 27.9092C28.503 27.0588 29.2545 25.5746 29.9033 24.5258C30.3873 23.7433 30.8977 23.0378 32.4315 21.0316C33.9187 19.0863 36.3116 16.715 38.2005 15.3145C40.3316 13.7345 41.3246 13.1341 43.9598 11.832C47.3258 10.1689 51.4579 8.82781 55.1295 8.20676C58.5792 7.62325 60.5914 7.37427 62.7217 7.26751C64.587 7.17395 70.0825 7.16093 70.9507 7.24798ZM22.6825 57.1996C24.5841 57.5342 25.8033 58.129 27.1695 59.3885C27.5212 59.7128 28.3449 60.7252 28.3449 60.8332C28.3449 60.8767 28.4042 60.9715 28.4767 61.044C28.9054 61.4727 29.665 63.4904 29.912 64.8564C30.1186 65.9994 30.1407 67.9736 29.9482 68.095C29.8624 68.1491 27.0409 68.1829 22.7805 68.1808C18.916 68.1789 15.5739 68.1797 15.3534 68.1825C14.9797 68.1873 14.9526 68.2053 14.9545 68.4471C14.9577 68.868 15.3982 70.2579 15.7557 70.9757C16.7466 72.9646 18.7105 74.2999 21.0037 74.5438C21.7315 74.6212 23.2981 74.4488 24.0198 74.212C25.1867 73.8289 26.3155 73.1447 27.2244 72.2694L27.6602 71.8499L28.5212 72.6298C28.9949 73.0587 29.3823 73.4552 29.3823 73.5109C29.3823 73.6558 28.5076 74.4856 27.7086 75.0985C26.8459 75.7603 25.329 76.4995 24.2894 76.7647C23.27 77.0248 21.3497 77.1202 20.2079 76.9674C16.9335 76.5294 14.1093 74.3811 12.8759 71.3901C12.1981 69.7463 11.9758 68.4551 12.0575 66.6377C12.1219 65.21 12.2307 64.5486 12.563 63.5664C12.8258 62.7896 13.5411 61.2879 13.7309 61.1143C13.7592 61.0883 13.9782 60.8125 14.2175 60.5013C16.2044 57.917 19.486 56.637 22.6825 57.1996ZM45.8584 57.287C47.835 57.7076 49.5251 58.6319 50.9093 60.0493L51.3577 60.5084L50.424 61.495L49.4904 62.4816L49.2715 62.2931C49.1511 62.1894 48.87 61.9377 48.6469 61.7339C48.4237 61.53 48.1533 61.2966 48.0459 61.2152C47.9384 61.1337 47.7376 60.9773 47.5996 60.8674C47.1336 60.4964 46.1423 60.059 45.2341 59.8236C44.4637 59.6239 44.199 59.5975 43.4348 59.644C41.6237 59.754 40.192 60.3814 39.0238 61.5767C38.398 62.2171 38.0714 62.6815 37.6482 63.5325C36.277 66.2899 36.7454 69.9755 38.7507 72.2058C40.4645 74.1119 43.0985 74.911 45.5568 74.2707C46.7766 73.9531 48.2352 73.0918 49.1494 72.1495C49.4013 71.8897 49.6349 71.6772 49.6684 71.6772C49.7552 71.6772 51.4514 73.2842 51.4514 73.3666C51.4514 73.4411 50.2005 74.697 49.8952 74.9291C49.0621 75.5624 48.7488 75.7651 48.1627 76.0504C46.5556 76.8325 45.1526 77.1089 43.2089 77.0261C41.9829 76.9739 40.9594 76.7725 40.1585 76.426C39.4346 76.1126 39.3201 76.0561 38.7664 75.7381C37.2663 74.8768 35.8081 73.3216 35.0234 71.7462C34.2077 70.1085 33.9113 68.8477 33.9098 67.0088C33.9075 64.3276 35.0549 61.6335 36.9873 59.783C38.4213 58.4096 40.1182 57.5622 42.1616 57.1989C43.077 57.0361 44.8816 57.0791 45.8584 57.287ZM66.1717 57.2373C67.4303 57.4657 68.1837 57.7211 69.182 58.2578C70.1105 58.7568 70.4485 58.9941 71.1621 59.6487C72.3606 60.7479 73.3998 62.3471 73.8916 63.8493C74.4219 65.469 74.5238 68.3025 74.0951 69.5081C74.049 69.6377 73.9372 69.9985 73.8465 70.3097C73.1707 72.6307 71.1666 74.9066 68.7864 76.0557C67.1291 76.8559 65.8021 77.1142 63.8062 77.0249C59.4711 76.8313 55.9885 74.0213 54.7825 69.7439C54.5365 68.8716 54.5166 68.6767 54.5176 67.1503C54.519 65.3293 54.6529 64.5738 55.2169 63.206C56.1517 60.939 58.0397 58.9601 60.187 57.9967C62.0954 57.1404 64.1807 56.8758 66.1717 57.2373ZM20.0598 59.606C17.9993 60.0426 16.3386 61.5419 15.4751 63.745C15.2422 64.3396 14.9525 65.4922 14.9525 65.8249C14.9525 66.0181 14.9635 66.0185 21.0301 66.0185C24.8747 66.0185 27.1285 65.9848 27.1645 65.9266C27.2411 65.8025 26.9845 64.4967 26.7517 63.8265C25.8156 61.1315 23.9671 59.6524 21.4129 59.5551C20.8942 59.5353 20.2853 59.5582 20.0598 59.606ZM63.6176 59.6632C61.8268 59.8807 60.2122 60.7285 59.1604 62.0037C58.1326 63.2499 57.529 64.8055 57.4205 66.4881C57.1885 70.0824 59.2106 73.1729 62.462 74.1937C63.8914 74.6424 65.8314 74.5243 67.2359 73.9032C68.6671 73.2703 70.321 71.6829 70.644 70.6324C70.6825 70.5067 70.7488 70.3603 70.7913 70.3068C70.8338 70.2532 70.9798 69.8288 71.1157 69.3637C72.1239 65.9142 70.6782 62.1372 67.7243 60.5036C66.572 59.8663 64.8489 59.5137 63.6176 59.6632Z" fill="#FEFEFE"/>
</svg>