<svg width="1920" height="431" viewBox="0 0 1920 431" fill="none" xmlns="http://www.w3.org/2000/svg">
<path opacity="0.24" d="M1980.28 28.1235V430.637H-27.7066L-27.7334 427.958L-28.8855 259.75L-29.3678 191.106L-30.1448 77.2085L-30.3591 47.5753L-30.4663 30.8296C-30.4663 30.8296 151.218 -9.81563 443.853 2.48242C736.487 14.7805 899.684 32.3032 1002.03 23.9437C1104.38 15.5843 1634.03 -17.3177 1980.28 28.1235Z" fill="#510013"/>
<path d="M1979.02 45.0298V427.957H-27.7334L-28.9391 259.75L-29.4214 191.079L-30.252 77.2083L-30.4663 47.6019C-30.4663 47.6019 -30.4395 47.6019 -30.3591 47.5751C-25.5096 46.557 155.076 9.07337 443.558 20.6212C588.616 26.4353 701.844 33.4551 791.601 38.0903C882.831 42.8059 949.841 45.0566 1001.39 41.0376C1023.95 39.2692 1067.33 36.4024 1124.91 33.4283H1124.99C1328.43 22.9254 1709.37 11.324 1979.02 45.0298Z" fill="#F0F5FF"/>
<path d="M1979.02 45.0298V77.6906C1752.78 68.179 619.803 50.8171 412.076 50.3884C227.873 50.0401 30.4881 70.4029 -30.252 77.2083L-30.4663 47.6019C-30.4663 47.6019 151.111 8.9126 443.558 20.6212C588.616 26.4353 701.844 33.4551 791.601 38.0903C882.831 42.8059 949.841 45.0566 1001.39 41.0376C1023.95 39.2692 1067.33 36.4024 1124.91 33.4283H1124.99C1328.43 22.9254 1709.37 11.324 1979.02 45.0298Z" fill="white"/>
<g opacity="0.71">
<path opacity="0.11" d="M370.332 259.268C278.298 259.268 84.1012 261.599 -28.8855 259.75C-28.9123 259.75 -28.9123 259.75 -28.9391 259.75L-29.4214 191.079C-29.3946 191.106 -29.3946 191.106 -29.3678 191.106C-14.3368 192.178 1.8998 193.464 19.3957 194.938C209.868 211.04 340.029 235.127 427.67 241.852C515.31 248.551 469.172 259.268 370.332 259.268Z" fill="#0025A9"/>
<path opacity="0.11" d="M1980.28 131.143V170.127C1979.85 170.154 1979.45 170.208 1979.02 170.235C1869.35 180.255 1823.46 170.02 1714.89 169.886C1605.07 169.779 1631.81 156.624 1701.07 145.906C1764.46 136.1 1839.53 138.511 1979.02 131.224C1979.42 131.197 1979.85 131.17 1980.28 131.143Z" fill="#0025A9"/>
<path opacity="0.11" d="M1980.28 312.613V345.087C1979.85 345.087 1979.45 345.087 1979.02 345.113C1899.74 346.105 1812.63 347.016 1755.43 347.016C1659.08 347.016 1586.77 357.733 1553.14 338.978C1536.29 329.573 1671.52 320.223 1835.46 312.185C1880.34 309.988 1931.36 310.684 1979.02 312.587C1979.45 312.613 1979.88 312.613 1980.28 312.613Z" fill="#0025A9"/>
</g>
<path d="M1398.36 223.177C1368.67 240.137 1206.55 274.111 1232.91 272.745C1259.28 271.405 1378.02 283.033 1336.57 299.109C1295.15 315.185 1140.47 329.493 1168.26 333.833C1196.07 338.174 1338.74 345.568 1321.65 360.626C1304.56 375.684 1170.83 374.13 1166.38 386.642C1161.94 399.155 1251.21 399.155 1289.23 402.718C1324.73 406.041 1265.52 415.606 1179 427.957H672.05C701.415 415.07 742.489 418.794 781.286 406.282C831.148 390.206 715.348 393.796 642.202 395.564C569.057 397.36 633.173 377.72 720.706 364.029C808.239 350.338 754.653 329.493 708.435 332.145C662.244 334.798 531.359 343.773 543.496 332.145C555.634 320.517 659.966 295.546 697.718 286.624C735.469 277.675 763.575 258.035 708.435 247.318C653.295 236.601 577.818 220.525 618.571 218.623C659.35 216.693 686.197 176.102 664.467 184.81C642.765 193.491 518.874 166.939 573.907 162.33C628.94 157.695 690.35 132.992 653.75 128.222C617.178 123.453 540.308 118.711 585.883 94.1416C631.458 69.5723 777.856 61.5611 803.845 56.7384C814.509 54.7825 805.694 46.7981 791.601 38.0904C882.832 42.8059 949.841 45.0566 1001.39 41.0376C1023.95 39.2692 1067.33 36.4024 1124.91 33.4283H1124.99C1323.31 47.977 1488.79 77.637 1318.73 94.1416C1148.67 110.646 1274.44 129.428 1316.96 128.222C1359.51 127.044 1372.66 150.863 1321.65 162.33C1270.61 173.771 1276.21 199.09 1308.92 202.654C1341.61 206.244 1428.05 206.244 1398.36 223.177Z" fill="white"/>
</svg>
