<svg xmlns="http://www.w3.org/2000/svg" width="68" height="60" viewBox="0 0 68 60" fill="none">
  <g clip-path="url(#clip0_6_4)">
    <path d="M27.8432 59.9853C26.881 59.9853 26.072 59.9853 25.2631 59.9853C20.6136 59.9895 15.9642 59.998 11.3148 59.998C9.63937 59.998 9.23702 59.6196 9.23489 57.9515C9.22638 49.6344 9.22212 41.3172 9.25405 33.0001C9.25618 32.5752 9.49674 32.0191 9.82033 31.7506C17.8483 25.0318 25.8996 18.3447 33.9488 11.6534C34.0574 11.5646 34.1766 11.4864 34.3895 11.332C35.9372 12.6893 37.4997 14.0487 39.0517 15.4208C45.1743 20.8289 51.3011 26.2327 57.3961 31.6703C57.7558 31.9917 58.0475 32.6005 58.0496 33.0762C58.0901 41.2517 58.0815 49.4272 58.0752 57.6048C58.0752 59.275 57.577 59.8585 55.9995 59.8648C50.6752 59.8902 45.351 59.8733 40.0288 59.869C39.8926 59.869 39.7563 59.831 39.4668 59.7866C39.4668 59.3722 39.4647 58.9642 39.4668 58.5561C39.4817 54.573 39.4987 50.5921 39.5094 46.609C39.5158 44.4631 38.8005 43.7126 36.6801 43.6914C34.4789 43.6703 32.2798 43.6682 30.0785 43.6936C28.4776 43.7126 27.8518 44.368 27.8496 45.9769C27.8411 50.2052 27.8432 54.4356 27.8411 58.664C27.8432 59.0487 27.8432 59.4314 27.8432 59.9853Z" fill="#C41129"/>
    <path d="M0 30.2452C11.4852 20.2008 22.9789 10.1501 34.5854 0C45.747 10.0359 56.8788 20.0465 67.9979 30.0465C67.3613 31.4376 65.6817 32.3002 64.1787 31.7611C62.8077 31.2685 61.3601 30.6702 60.2893 29.7315C52.0996 22.5539 43.9929 15.2833 35.8606 8.04228C35.4646 7.69133 35.0602 7.34884 34.5833 6.93446C32.3054 8.84144 30.0361 10.7315 27.7752 12.6321C20.7904 18.4989 13.8291 24.3953 6.8017 30.2114C5.85862 30.9915 4.64517 31.5603 3.46152 31.9133C2.0437 32.3362 0.840899 31.63 0 30.2452Z" fill="#C41129"/>
    <path d="M53.3832 6.92603C55.6568 6.92603 57.775 6.92603 59.9699 6.92603C59.9699 11.4123 59.9699 15.8584 59.9699 20.482C59.0694 19.7358 58.2434 19.0592 57.4259 18.3721C56.2358 17.3721 55.0458 16.3763 53.8771 15.3531C53.6578 15.1628 53.4087 14.8541 53.4045 14.5983C53.3683 12.074 53.3832 9.5497 53.3832 6.92603Z" fill="#C41129"/>
  </g>
  <defs>
    <clipPath id="clip0_6_4">
      <rect width="68" height="60" fill="white"/>
    </clipPath>
  </defs>
</svg>