<svg xmlns="http://www.w3.org/2000/svg" width="83" height="82" viewBox="0 0 83 82" fill="none">
  <path d="M1.21534 67.0688C0.756445 63.6624 1.04766 60.1324 1.04766 56.6819C1.04766 50.7869 1.04766 44.9008 1.04766 39.0058C1.04766 34.3286 1.04766 29.6426 1.04766 24.9655C1.04766 20.9413 0.562298 16.5819 1.46243 12.6283C2.75086 6.98045 7.28682 2.08266 12.9524 0.644213C15.4763 0 18.1237 0 20.7359 0C34.7232 0 48.7106 0.00882484 62.698 0.00882484C67.0398 0.00882484 71.7346 0.344169 75.441 2.85925C78.8915 5.19783 81.3625 8.94838 82.1038 13.0519C82.4303 14.8875 82.4391 16.7584 82.4391 18.6204C82.4391 33.1461 82.4391 47.6718 82.4303 62.1886C82.4303 66.1245 82.3244 69.7868 80.3123 73.2903C78.5386 76.379 75.697 78.8764 72.3523 80.1295C68.9018 81.4179 65.1336 81.4356 61.4537 81.4356C48.0046 81.4268 34.5644 81.4179 21.1153 81.4091C17.6119 81.4091 14.0202 81.3826 10.7726 80.0854C7.1721 78.6469 4.28638 75.6642 2.65378 72.1519C1.8772 70.5016 1.45361 68.7984 1.21534 67.0688ZM41.7125 76.3613C48.1017 76.3701 54.4909 76.3701 60.8801 76.379C63.7305 76.379 66.625 76.379 69.3696 75.62C72.1141 74.8611 74.7527 73.2373 76.0853 70.7222C77.2943 68.4543 77.3296 65.7715 77.3296 63.1947C77.3384 49.3397 77.2766 35.4758 77.409 21.6208C77.4355 18.7704 77.4619 15.8759 76.7295 13.1225C75.997 10.3692 74.3909 7.72173 71.8758 6.37153C69.6255 5.16253 66.9515 5.13605 64.3923 5.13605C49.5401 5.11841 34.6879 5.10076 19.8269 5.08311C17.4177 5.08311 14.938 5.09193 12.7053 6.00089C5.27476 9.03663 6.15725 17.7026 6.12195 24.2065C6.069 33.5167 5.91897 42.8269 5.98957 52.1371C6.01605 55.9495 6.0337 59.7618 6.069 63.583C6.09547 66.9276 6.74851 70.5016 9.07827 72.902C12.4141 76.3437 17.7707 76.3525 22.2184 76.3525C28.7047 76.3525 35.2086 76.3613 41.7125 76.3613Z" fill="#CB2F44"/>
  <path d="M21.1681 40.8236C21.1593 38.2908 21.5652 35.7228 22.3418 33.2166C22.4036 33.0312 22.4301 32.8283 22.5271 32.6606C22.7389 32.2988 22.8537 31.884 23.0566 31.531C23.2596 31.1692 23.4361 30.7809 23.6567 30.4279C24.2039 29.5278 24.7863 28.6541 25.4305 27.8158C26.0659 27.0039 26.8248 26.3332 27.522 25.5831C33.7612 18.9203 45.1717 18.382 52.6728 23.0239C59.1149 27.0127 63.042 34.7433 62.4683 42.2973C61.8947 49.8514 56.8293 56.8936 49.8488 59.8499C42.8684 62.8063 34.2906 61.5443 28.4574 56.7083C23.4979 52.5959 21.1858 46.8156 21.1681 40.8236ZM41.6859 56.3729C42.0389 56.3729 42.383 56.3641 42.736 56.3376C53.0611 55.6228 60.1827 44.3712 56.2557 34.7609C54.473 30.4014 50.6342 26.9509 46.1071 25.636C40.8034 24.1005 35.2349 25.6096 31.1137 29.166C26.2865 33.3401 24.8304 40.8854 27.2219 46.6833C29.5958 52.4371 35.4996 56.3641 41.6859 56.3729Z" fill="#CB2F44"/>
  <path d="M57.508 18.9648C57.5521 17.7734 57.9316 16.5644 58.6111 15.5231C58.9817 14.9583 59.5553 14.517 60.1731 14.1552C62.7852 12.6285 66.3505 13.2551 68.1154 15.7878C69.651 17.9852 69.4039 21.2504 67.5683 23.1919C65.7239 25.1422 62.4852 25.5657 60.1996 24.1626C58.2846 22.9889 57.4286 20.9857 57.508 18.9648Z" fill="#CB2F44"/>
</svg>