<svg xmlns="http://www.w3.org/2000/svg" width="59" height="76" viewBox="0 0 59 76" fill="none">
  <g clip-path="url(#clip0_7_9)">
    <path d="M35.032 35.5685C38.5497 36.4614 40.3402 39.3987 42.4635 42.0606C43.2533 41.0443 43.8978 39.99 44.7556 39.1636C45.9297 38.0357 47.1601 36.8935 48.5569 36.0981C50.4177 35.0366 52.2129 35.7158 53.148 37.6581C54.1792 39.7952 54.4932 42.0107 53.223 44.3853C55.1939 44.3853 57.0688 44.3853 58.9999 44.3853C58.9999 46.9664 58.9999 49.4027 58.9999 51.9245C47.985 51.9245 36.9936 51.9245 25.9271 51.9245C25.9271 49.4692 25.9271 47.0353 25.9271 44.4779C27.7809 44.4779 29.6347 44.4779 31.5588 44.4779C30.2323 41.2057 31.001 38.4631 32.9532 36.1337C31.1768 35.2385 29.2082 34.4786 27.5044 33.3175C25.8146 32.1658 24.3944 30.6081 22.7797 29.1596C22.7562 29.5087 22.7164 29.8411 22.7141 30.1735C22.7094 33.3792 22.7234 36.5848 22.7023 39.7905C22.6976 40.4577 22.5758 41.125 22.5008 41.7899C22.318 43.3808 21.9758 44.9694 21.9664 46.5604C21.9125 54.8309 21.9477 63.1039 21.9313 71.3768C21.9289 72.1201 21.9032 72.9013 21.6852 73.5994C21.1977 75.1714 19.6299 76.1378 18.0456 75.9835C16.4004 75.822 15.0669 74.5445 14.8372 72.8704C14.774 72.4026 14.7927 71.923 14.7927 71.4481C14.7904 63.8495 14.7927 56.2509 14.7904 48.65C14.7904 48.213 14.7411 47.7761 14.7154 47.3392C14.6029 47.3392 14.4904 47.3392 14.3779 47.3392C14.3544 47.7761 14.3099 48.2107 14.3099 48.6476C14.3052 56.4456 14.317 64.2413 14.3005 72.0393C14.2959 74.8603 12.0155 76.6412 9.55477 75.7721C8.27282 75.3186 7.49006 74.3806 7.26507 73.0224C7.16899 72.4406 7.1643 71.8399 7.1643 71.2486C7.15961 61.8691 7.20883 52.4872 7.13852 43.1101C7.11508 40.0446 6.78698 36.979 6.52919 33.8802C6.38857 35.267 6.20811 36.6537 6.1214 38.0452C6.05344 39.1494 6.10968 40.2607 6.10031 41.3696C6.08156 43.2478 4.93554 44.5539 3.24581 44.6346C1.53967 44.7177 0.171013 43.4283 0.0468021 41.55C-0.016475 40.605 -0.0117878 39.648 0.0327405 38.7006C0.236633 34.386 0.787378 30.1427 2.36227 26.0774C4.07544 21.6489 7.02603 18.4765 11.3781 16.6552C12.278 16.2777 13.5881 16.2159 14.5208 16.1922C15.2849 16.1708 17.2324 16.2682 18.2425 16.7502C20.8439 17.9921 22.8734 19.9297 24.7881 22.0359C26.4802 23.8976 28.1278 25.8139 29.9698 27.514C30.9752 28.4425 32.2712 29.1715 33.5625 29.6321C36.8319 30.7981 37.4412 32.9921 35.032 35.5685ZM40.134 44.2713C40.2488 44.0718 40.3613 43.87 40.4762 43.6705C38.9059 42.0606 37.3685 40.4174 35.7397 38.8715C35.4491 38.5961 34.5633 38.4869 34.3266 38.7077C32.7962 40.1514 33.4407 43.0864 35.4515 43.6183C36.9655 44.022 38.5685 44.0671 40.134 44.2713ZM44.5212 43.7323C44.6126 43.8771 44.7017 44.0243 44.7931 44.1692C46.0258 44.0861 47.2702 44.0789 48.4889 43.9009C51.0059 43.5328 51.6528 42.5545 51.1981 40.0137C50.8817 38.2518 50.106 37.8885 48.7936 39.1185C47.2702 40.5456 45.9367 42.184 44.5212 43.7323ZM40.6308 50.5021C41.8729 50.5021 43.0518 50.5021 44.2564 50.5021C44.2564 49.2388 44.2564 48.0444 44.2564 46.8192C42.9955 46.8192 41.8214 46.8192 40.6308 46.8192C40.6308 48.1299 40.6308 49.2911 40.6308 50.5021Z" fill="#C41129"/>
    <path d="M57.4202 54.876C57.4202 61.6696 57.4202 68.4157 57.4202 75.2307C53.0893 75.2307 48.8075 75.2307 44.3852 75.2307C44.3852 69.2895 44.3852 63.3413 44.3852 57.3146C43.061 57.3146 41.8775 57.3146 40.5979 57.3146C40.5979 63.2795 40.5979 69.1993 40.5979 75.2093C36.1966 75.2093 31.8868 75.2093 27.4949 75.2093C27.4949 68.4727 27.4949 61.7289 27.4949 54.876C37.4153 54.876 47.3498 54.876 57.4202 54.876Z" fill="#C41129"/>
    <path d="M7.00953 7.82653C7.01656 3.47872 10.4476 -0.00237334 14.7246 1.21409e-06C18.9736 0.00237577 22.4773 3.53809 22.4937 7.83841C22.5101 12.1862 19.004 15.6958 14.6567 15.6863C10.3327 15.6744 7.00484 12.2551 7.00953 7.82653Z" fill="#C41129"/>
  </g>
  <defs>
    <clipPath id="clip0_7_9">
      <rect width="59" height="76" fill="white"/>
    </clipPath>
  </defs>
</svg>