<svg xmlns="http://www.w3.org/2000/svg" width="131" height="124" viewBox="0 0 131 124" fill="none">
  <path d="M0 123.217V89.1452C0 71.3015 1.87105 56.6153 5.67768 45.1601C9.4843 33.7048 15.9362 24.0119 25.0979 16.008C34.2596 8.00398 44.5827 2.71695 56.0025 0V27.3163C47.8731 32.6768 43.2923 39.7996 42.1309 48.6848H56.0025V123.217H0ZM74.7776 123.217V89.1452C74.7776 71.3015 76.6486 56.6153 80.4552 45.1601C84.2619 33.7048 90.7138 24.0119 99.7464 16.008C108.844 8.00398 119.167 2.71695 130.716 0V27.3163C122.586 32.6768 118.005 39.7996 116.844 48.6848H130.716V123.217H74.7776Z" fill="black"/>
</svg>