<svg xmlns="http://www.w3.org/2000/svg" width="100" height="89" viewBox="0 0 100 89" fill="none">
  <path d="M53.2653 51.0373H46.6926C46.3588 51.0373 46.0562 50.8599 45.8893 50.5782L42.603 44.8923C42.4361 44.6106 42.4361 44.2559 42.603 43.9638L45.8893 38.2779C46.0562 37.9962 46.3588 37.8188 46.6926 37.8188H53.2653C53.5992 37.8188 53.9017 37.9962 54.0687 38.2779L57.355 43.9638C57.5219 44.2455 57.5219 44.6002 57.355 44.8923L54.0687 50.5782C53.9017 50.8599 53.5992 51.0373 53.2653 51.0373ZM47.2352 49.1906H52.7437L55.4979 44.4228L52.7437 39.655H47.2352L44.4809 44.4228L47.2352 49.1906Z" fill="#C41129"/>
  <path d="M69.9891 16.463C68.5911 16.9951 65.7951 18.0697 65.5447 17.5063C65.5134 17.4437 65.5343 17.3185 65.576 17.162L68.7998 11.0901C69.4362 10.5476 70.7194 9.81731 71.867 9.82774C73.338 9.83817 76.3531 9.49388 75.7063 7.73073C75.0595 5.96758 72.5138 7.60554 71.5436 8.12718C71.0533 8.39844 70.4899 8.59666 70.0517 8.74272L72.253 4.60088C72.253 4.60088 73.3485 4.4757 74.1935 2.78558C74.35 2.46216 74.4022 2.12831 74.3709 1.80489C74.4126 0.678146 73.5154 0.0312985 72.566 0C72.5347 0 72.5034 0 72.4721 0C72.4095 0 72.3469 0.010443 72.2844 0.010443C72.2531 0.010443 72.2217 0.0208701 72.18 0.0208701C71.627 0.104333 71.1054 0.396451 70.8028 0.949392C69.9056 2.61864 70.4273 3.57847 70.4273 3.57847L68.2364 7.87679C68.1008 7.43861 67.9443 6.85438 67.8817 6.30144C67.7565 5.20599 67.6417 2.18047 65.8264 2.66038C64.0111 3.14029 65.4612 5.81109 66.3063 7.01086C66.9636 7.93939 67.1096 9.41042 67.0262 10.245L63.9068 16.3796C63.8024 16.5048 63.7085 16.5882 63.6355 16.6091C63.0304 16.7343 62.3001 13.8235 61.9349 12.3629C61.5698 10.9127 60.8395 5.82152 58.4191 7.27169C55.9987 8.72185 58.659 11.7578 59.2641 12.8428C59.8692 13.9383 61.4446 17.8089 61.3194 19.7494C61.2673 20.5944 59.5876 24.4337 57.7201 28.4921L52.5872 38.5702L52.7854 38.8623C52.6602 39.1336 52.5872 39.2796 52.5872 39.2796H53.0775L53.2757 39.5717C53.2757 39.5717 53.3383 39.4674 53.4322 39.2796H53.7869L59.1703 29.1493C61.4133 25.2996 63.5833 21.742 64.2406 21.2099C65.7638 19.9997 69.843 19.0608 71.0845 18.9356C72.3261 18.8104 76.3323 19.2486 76.1341 16.4317C75.9671 13.594 71.3871 15.9205 69.9891 16.463Z" fill="#C41129"/>
  <path d="M35.7799 13.135C35.5504 14.6165 35.0809 17.5794 34.4653 17.5064C34.3923 17.4959 34.2984 17.4229 34.1836 17.3081L30.5321 11.4762C30.3756 10.652 30.3861 9.17052 30.9703 8.18984C31.711 6.92746 32.9213 4.1419 31.0747 3.81848C29.2281 3.49506 29.3636 6.52058 29.3428 7.61603C29.3323 8.16897 29.2281 8.76364 29.1237 9.21225L26.6407 5.23734C26.6407 5.23734 27.0789 4.2358 26.0356 2.65001C25.8374 2.34745 25.5766 2.1388 25.274 2.00318C24.3142 1.39807 23.3022 1.8571 22.8014 2.66043C22.7806 2.6813 22.7701 2.7126 22.7492 2.7439C22.7179 2.79606 22.6867 2.85866 22.6658 2.91083C22.6554 2.94212 22.6345 2.97342 22.624 3.00472C22.4154 3.52636 22.4154 4.13146 22.7388 4.66353C23.73 6.28062 24.8254 6.3015 24.8254 6.3015L27.4544 10.3494C27.0058 10.2451 26.4216 10.0886 25.9104 9.86952C24.9088 9.43134 22.2172 8.02291 21.7268 9.83823C21.2365 11.6535 24.2725 11.7266 25.7331 11.5909C26.8702 11.4866 28.216 12.0917 28.8942 12.5821L32.6396 18.3514C32.6918 18.5079 32.7231 18.6331 32.7022 18.6957C32.504 19.2799 29.6245 18.4557 28.1848 18.0489C26.745 17.6315 21.9668 15.7224 22.019 18.5496C22.0711 21.3769 26.0251 20.584 27.2667 20.6049C28.5082 20.6258 32.6605 21.1996 34.2776 22.2742C34.987 22.7436 37.47 26.1134 40.0469 29.7545L46.2023 39.2379L46.557 39.2066C46.7239 39.457 46.8178 39.5927 46.8178 39.5927L47.0682 39.1649L47.4125 39.1336C47.4125 39.1336 47.3499 39.0293 47.2456 38.8519L47.4229 38.5389L41.3405 28.8156C39.1288 24.9554 37.1361 21.2935 37.0005 20.4484C36.7084 18.5288 37.9395 14.5226 38.4507 13.3854C38.9619 12.2482 41.351 8.99316 38.8054 7.76209C36.2911 6.52058 36.0094 11.6535 35.7799 13.135Z" fill="#C41129"/>
  <path d="M15.7907 41.0948C16.9592 42.0338 19.2857 43.9221 18.9206 44.4229C18.8788 44.4751 18.7641 44.5272 18.6076 44.569L11.7323 44.8089C10.9394 44.5272 9.66666 43.7865 9.10328 42.785C8.37298 41.5122 6.57852 39.0709 5.36831 40.5106C4.1581 41.9503 6.86022 43.3379 7.79918 43.9117C8.27909 44.2038 8.73811 44.5898 9.0824 44.8924L4.39807 45.0593C4.39807 45.0593 3.75123 44.1725 1.85245 44.2873C1.4873 44.3082 1.17429 44.4333 0.913472 44.6211C-0.0880802 45.1532 -0.192424 46.2591 0.245755 47.0833C0.256188 47.1146 0.277094 47.1354 0.287527 47.1667C0.318826 47.2189 0.360532 47.2711 0.39183 47.3232C0.412696 47.3545 0.433559 47.3754 0.454425 47.4067C0.798708 47.8449 1.32034 48.1474 1.94631 48.137C3.84509 48.0848 4.40851 47.1459 4.40851 47.1459L9.22847 46.8955C8.91549 47.2398 8.48773 47.6571 8.03911 47.9909C7.15232 48.6378 4.59625 50.2653 5.92122 51.5903C7.24619 52.9257 8.83198 50.3279 9.44752 48.9925C9.92743 47.9596 11.1168 47.0937 11.8888 46.7494L18.764 46.3843C18.931 46.4156 19.0457 46.4573 19.0979 46.499C19.5048 46.9581 17.3556 49.0447 16.2706 50.0879C15.1961 51.1312 11.1481 54.3028 13.6207 55.6799C16.0932 57.0571 17.3869 53.2282 18.0233 52.1536C18.6702 51.0791 21.2367 47.7823 22.9789 46.9163C23.7405 46.5408 27.9032 46.0713 32.3476 45.6644L43.6359 45.0697L43.782 44.7463C44.0741 44.7255 44.2411 44.715 44.2411 44.715L43.9907 44.2873L44.1367 43.9743C44.1367 43.9743 44.0115 43.9743 43.8133 43.9847L43.6359 43.6717L32.1703 44.0786C27.7154 44.0578 23.5527 43.9639 22.7598 43.6509C20.9549 42.9415 18.0964 39.8742 17.3661 38.8622C16.6358 37.8502 15.0082 34.157 12.6713 35.7428C10.3135 37.339 14.6222 40.1454 15.7907 41.0948Z" fill="#C41129"/>
  <path d="M30.0105 72.3831C31.4085 71.8511 34.2045 70.7765 34.4549 71.3398C34.4861 71.4024 34.4653 71.5276 34.4235 71.6841L31.1998 77.7561C30.5634 78.2986 29.2802 79.0288 28.1326 79.0184C26.6615 79.008 23.6464 79.3523 24.2933 81.1154C24.9401 82.8786 27.4857 81.2406 28.456 80.719C28.9463 80.4477 29.5097 80.2495 29.9479 80.1034L27.7465 84.2453C27.7465 84.2453 26.6511 84.3705 25.806 86.0606C25.6495 86.384 25.5974 86.7178 25.6287 87.0413C25.5869 88.168 26.4842 88.8149 27.4336 88.8462C27.4649 88.8462 27.4961 88.8462 27.5274 88.8462C27.59 88.8462 27.6526 88.8357 27.7152 88.8357C27.7465 88.8357 27.7779 88.8253 27.8196 88.8253C28.3725 88.7418 28.8941 88.4497 29.1967 87.8968C30.0939 86.2275 29.5723 85.2677 29.5723 85.2677L31.7632 80.9693C31.8988 81.4075 32.0553 81.9918 32.1179 82.5447C32.2431 83.6402 32.3578 86.6657 34.1731 86.1858C35.9885 85.7059 34.5383 83.0351 33.6933 81.8353C33.036 80.9068 32.8899 79.4357 32.9734 78.6011L36.0928 72.4666C36.1971 72.3414 36.291 72.2579 36.3641 72.2371C36.9692 72.1119 37.6994 75.0226 38.0646 76.4832C38.4297 77.9334 39.1601 83.0246 41.5805 81.5745C44.0009 80.1243 41.3405 77.0884 40.7354 76.0033C40.1303 74.9079 38.5549 71.0373 38.6801 69.0968C38.7323 68.2517 40.412 64.4124 42.2795 60.3541L47.4124 50.276L47.2142 49.9838C47.3394 49.7126 47.4124 49.5665 47.4124 49.5665H46.9221L46.7239 49.2744C46.7239 49.2744 46.6613 49.3787 46.5674 49.5665H46.2127L40.8293 59.6968C38.5862 63.5465 36.4162 67.1041 35.759 67.6362C34.2358 68.8464 30.1565 69.7854 28.915 69.9106C27.6735 70.0357 23.6673 69.5976 23.8655 72.4144C24.022 75.2417 28.6125 72.9152 30.0105 72.3831Z" fill="#C41129"/>
  <path d="M64.2199 75.7111C64.4494 74.2296 64.9189 71.2667 65.5345 71.3397C65.6075 71.3502 65.7014 71.4232 65.8162 71.5379L69.4677 77.3699C69.6242 78.1941 69.6137 79.6756 69.0295 80.6562C68.2888 81.9186 67.0785 84.7042 68.9251 85.0276C70.7822 85.351 70.6362 82.3255 70.657 81.23C70.6675 80.6771 70.7717 80.0824 70.8761 79.6338L73.3591 83.6087C73.3591 83.6087 72.9209 84.6103 73.9642 86.1961C74.1624 86.4986 74.4232 86.7073 74.7258 86.8429C75.6856 87.448 76.6976 86.989 77.1984 86.1856C77.2192 86.1648 77.2297 86.1335 77.2506 86.1022C77.2819 86.05 77.3131 85.9874 77.334 85.9353C77.3444 85.904 77.3653 85.8727 77.3758 85.8414C77.5844 85.3197 77.5844 84.7146 77.261 84.1826C76.2698 82.5655 75.1744 82.5446 75.1744 82.5446L72.5454 78.4966C72.994 78.601 73.5782 78.7575 74.0894 78.9765C75.091 79.4147 77.7826 80.8232 78.273 79.0078C78.7633 77.1925 75.7273 77.1195 74.2667 77.2551C73.1296 77.3595 71.7838 76.7544 71.1056 76.264L67.3602 70.4947C67.308 70.3382 67.2767 70.213 67.2976 70.1504C67.4958 69.5661 70.3753 70.3903 71.8151 70.7972C73.2548 71.2145 78.033 73.1237 77.9808 70.2964C77.9287 67.4691 73.9747 68.262 72.7331 68.2412C71.4812 68.2203 67.3393 67.6465 65.7222 66.5719C65.0128 66.1024 62.5298 62.7326 59.9529 59.0916L53.7975 49.6081L53.4428 49.6394C53.2759 49.389 53.182 49.2534 53.182 49.2534L52.9316 49.6812L52.5873 49.7125C52.5873 49.7125 52.6499 49.8168 52.7542 49.9942L52.5769 50.3071L58.6593 60.0305C60.871 63.8907 62.8637 67.5526 62.9993 68.3977C63.2914 70.3173 62.0603 74.3235 61.5491 75.4607C61.0379 76.5979 58.6488 79.8529 61.1944 81.084C63.7087 82.3255 63.98 77.1925 64.2199 75.7111Z" fill="#C41129"/>
  <path d="M84.2094 47.7509C83.0409 46.8119 80.7144 44.9236 81.0795 44.4228C81.1213 44.3706 81.236 44.3185 81.3925 44.2767L88.2678 44.0368C89.0607 44.3185 90.3334 45.0592 90.8968 46.0608C91.6271 47.3336 93.4216 49.7748 94.6318 48.3351C95.842 46.8954 93.1399 45.5078 92.2009 44.934C91.721 44.6419 91.262 44.2559 90.9177 43.9533L95.602 43.7864C95.602 43.7864 96.2489 44.6732 98.1476 44.5584C98.5128 44.5376 98.8258 44.4124 99.0866 44.2246C100.088 43.6925 100.192 42.5866 99.7543 41.7624C99.7438 41.7311 99.723 41.7103 99.7126 41.679C99.6813 41.6268 99.6396 41.5746 99.6083 41.5225C99.5874 41.4912 99.5665 41.4703 99.5457 41.439C99.2014 41.0008 98.6797 40.6983 98.0537 40.7087C96.1549 40.7609 95.5916 41.6998 95.5916 41.6998L90.7716 41.9502C91.0846 41.6059 91.5124 41.1886 91.961 40.8548C92.8478 40.2079 95.4038 38.5804 94.0788 37.2555C92.7538 35.92 91.1681 38.5178 90.5526 39.8532C90.0727 40.8861 88.8833 41.752 88.1113 42.0963L81.236 42.4614C81.0691 42.4301 80.9544 42.3884 80.9022 42.3467C80.4953 41.8876 82.6444 39.8011 83.7295 38.7578C84.804 37.7145 88.852 34.5429 86.3794 33.1658C83.9069 31.7886 82.6132 35.6175 81.9767 36.6921C81.3403 37.7667 78.7634 41.0634 77.0212 41.9294C76.2596 42.3049 72.0969 42.7744 67.6525 43.1813L56.3642 43.776L56.2181 44.0994C55.926 44.1203 55.759 44.1307 55.759 44.1307L56.0094 44.5584L55.8634 44.8714C55.8634 44.8714 55.9886 44.8714 56.1868 44.861L56.3642 45.174L67.8298 44.7671C72.2846 44.788 76.4474 44.8819 77.2403 45.1948C79.0451 45.9043 81.9037 48.9715 82.634 49.9835C83.3643 50.9955 84.9918 54.6887 87.3288 53.1029C89.6762 51.5067 85.3674 48.6898 84.2094 47.7509Z" fill="#C41129"/>
  <path d="M58.4821 28.4085L49.9376 21.0638C49.6976 20.8447 49.3117 20.8342 49.0717 21.0638L40.8506 29.1909C40.8298 29.2118 40.8089 29.2327 40.788 29.2535C40.3707 29.7022 40.402 30.4116 40.8506 30.8289C41.2992 31.2462 42.0087 31.2149 42.426 30.7663L49.5099 22.3992L57.032 29.8586C57.0528 29.8795 57.0737 29.9004 57.0841 29.9108C57.5014 30.2968 58.1483 30.276 58.5343 29.8586C58.9203 29.4518 58.8994 28.7945 58.4821 28.4085Z" fill="#C41129"/>
  <path d="M49.6451 21.961C49.4886 21.961 49.3425 21.888 49.2382 21.7628L45.4928 17.5062C45.3572 17.3289 45.3572 17.0785 45.4928 16.8907L49.2382 12.6341C49.426 12.3837 49.8537 12.3837 50.0415 12.6341L53.7869 16.8907C53.9225 17.068 53.9225 17.3184 53.7869 17.5062L50.0415 21.7628C49.9581 21.888 49.8016 21.961 49.6451 21.961ZM47.0473 17.2037L49.6555 20.6256L52.2637 17.2037L49.6555 13.7817L47.0473 17.2037Z" fill="#C41129"/>
  <path d="M40.3703 29.0659L29.7392 32.7904C29.4262 32.8948 29.228 33.2182 29.301 33.5416L32.2327 44.7256C32.2431 44.7569 32.2431 44.7882 32.2536 44.8195C32.4413 45.4037 33.0673 45.7376 33.6515 45.5498C34.2358 45.362 34.5696 44.736 34.3818 44.1518L30.6782 33.8337L40.8919 31.0482C40.9128 31.0377 40.9441 31.0377 40.9649 31.0273C41.5074 30.8604 41.81 30.2866 41.6431 29.7441C41.497 29.2016 40.9128 28.899 40.3703 29.0659Z" fill="#C41129"/>
  <path d="M30.3655 33.4897C30.282 33.6253 30.1464 33.7192 29.9899 33.7401L24.4292 34.8564C24.1997 34.8877 23.9806 34.7625 23.8971 34.5538L22.0922 29.1809C21.967 28.8888 22.1861 28.5236 22.4991 28.4819L28.0598 27.3656C28.2894 27.3343 28.5085 27.4595 28.5919 27.6682L30.3968 33.0411C30.4594 33.1871 30.449 33.3541 30.3655 33.4897ZM24.9509 33.3645L29.2074 32.822L27.5486 28.8575L23.292 29.4L24.9509 33.3645Z" fill="#C41129"/>
  <path d="M31.8884 45.0801L29.8018 56.1493C29.7288 56.4727 29.9166 56.8066 30.24 56.9005L41.3927 59.9573C41.424 59.9677 41.4553 59.9782 41.4866 59.9782C42.0917 60.1138 42.6864 59.7382 42.8221 59.1331C42.9577 58.528 42.582 57.9333 41.9769 57.7977L31.1894 55.8468L33.8811 45.6017C33.8915 45.5809 33.8915 45.5496 33.9019 45.5287C34.0271 44.9757 33.6828 44.4228 33.1299 44.2976C32.5665 44.1724 32.0136 44.5271 31.8884 45.0801Z" fill="#C41129"/>
  <path d="M30.7199 55.9515C30.8034 56.0872 30.8138 56.2541 30.7512 56.4002L28.9463 61.7731C28.8629 61.9817 28.6438 62.1069 28.4142 62.0756L22.8536 60.9593C22.5406 60.9176 22.3319 60.5524 22.4467 60.2603L24.2515 54.8874C24.335 54.6787 24.5541 54.5536 24.7836 54.5848L30.3443 55.7012C30.5008 55.722 30.6364 55.8159 30.7199 55.9515ZM27.903 60.5837L29.5619 56.6192L25.3053 56.0767L23.6465 60.0412L27.903 60.5837Z" fill="#C41129"/>
  <path d="M41.5074 60.4272L50.0519 67.7719C50.2919 67.991 50.6778 68.0014 50.9178 67.7719L59.1389 59.6447C59.1597 59.6239 59.1806 59.603 59.2015 59.5821C59.6188 59.1335 59.5875 58.4241 59.1389 58.0068C58.6903 57.5895 57.9808 57.6208 57.5635 58.0694L50.4796 66.4365L42.9575 58.977C42.9367 58.9562 42.9158 58.9353 42.9054 58.9249C42.4881 58.5389 41.8412 58.5597 41.4552 58.977C41.0692 59.3944 41.0901 60.0412 41.5074 60.4272Z" fill="#C41129"/>
  <path d="M50.3441 66.8848C50.5006 66.8848 50.6467 66.9578 50.751 67.083L54.4964 71.3396C54.632 71.5169 54.632 71.7673 54.4964 71.9551L50.751 76.2117C50.5632 76.4621 50.1354 76.4621 49.9477 76.2117L46.2023 71.9551C46.0667 71.7778 46.0667 71.5274 46.2023 71.3396L49.9477 67.083C50.0416 66.9578 50.1876 66.8848 50.3441 66.8848ZM52.9523 71.6421L50.3441 68.2202L47.7359 71.6421L50.3441 75.0641L52.9523 71.6421Z" fill="#C41129"/>
  <path d="M59.619 59.7697L70.2501 56.0452C70.5631 55.9408 70.7613 55.6174 70.6882 55.294L67.7566 44.11C67.7462 44.0787 67.7462 44.0474 67.7357 44.0161C67.5479 43.4319 66.922 43.098 66.3378 43.2858C65.7535 43.4736 65.4197 44.0996 65.6075 44.6838L69.3111 55.0019L59.0974 57.7874C59.0765 57.7979 59.0452 57.7979 59.0243 57.8083C58.4818 57.9752 58.1793 58.549 58.3462 59.0915C58.5027 59.634 59.0765 59.9366 59.619 59.7697Z" fill="#C41129"/>
  <path d="M69.6243 55.3461C69.7077 55.2105 69.8434 55.1166 69.9999 55.0957L75.5605 53.9794C75.7901 53.9481 76.0092 54.0733 76.0926 54.2819L77.8975 59.6548C78.0227 59.947 77.8036 60.3121 77.4906 60.3538L71.9299 61.4702C71.7004 61.5015 71.4813 61.3763 71.3978 61.1676L69.593 55.7947C69.5304 55.6486 69.5408 55.4921 69.6243 55.3461ZM75.0493 55.4713L70.7928 56.0138L72.4516 59.9783L76.7082 59.4357L75.0493 55.4713Z" fill="#C41129"/>
  <path d="M68.1009 43.7656L70.1875 32.6964C70.2605 32.373 70.0727 32.0391 69.7493 31.9452L58.5966 28.8884C58.5653 28.8779 58.534 28.8675 58.5027 28.8675C57.8976 28.7319 57.303 29.1075 57.1673 29.7126C57.0317 30.3177 57.4073 30.9124 58.0124 31.048L68.7999 32.9989L66.1082 43.244C66.0978 43.2648 66.0978 43.2961 66.0874 43.317C65.9622 43.8699 66.3065 44.4229 66.8594 44.5481C67.4228 44.6628 67.9757 44.3186 68.1009 43.7656Z" fill="#C41129"/>
  <path d="M69.2693 32.8842C69.1858 32.7486 69.1754 32.5817 69.238 32.4356L71.0429 27.0627C71.1264 26.854 71.3455 26.7288 71.575 26.7601L77.1356 27.8764C77.4486 27.9182 77.6573 28.2833 77.5425 28.5754L75.7377 33.9484C75.6542 34.157 75.4351 34.2822 75.2056 34.2509L69.6449 33.1346C69.4884 33.1137 69.3528 33.0303 69.2693 32.8842ZM72.0966 28.252L70.4378 32.2165L74.6944 32.759L76.3532 28.7945L72.0966 28.252Z" fill="#C41129"/>
</svg>