<svg xmlns="http://www.w3.org/2000/svg" width="52" height="67" viewBox="0 0 52 67" fill="none">
  <g clip-path="url(#clip0_7_14)">
    <path d="M51.9962 4.01876C50.6027 4.01876 49.3307 4.01876 48.0117 4.01876C47.9244 4.7317 47.8093 5.40701 47.7603 6.0865C47.5622 8.89019 46.9677 11.6186 45.9897 14.2488C45.0287 16.8267 43.6651 19.2122 41.8945 21.3531C40.0344 23.6028 37.8483 25.5367 35.7005 27.5125C34.7736 28.3655 33.8979 29.2896 33.1117 30.2681C32.383 31.1754 31.9867 32.2752 31.9845 33.4439C31.9824 34.8008 32.4959 36.0051 33.3567 37.063C34.1749 38.0707 35.1273 38.9467 36.0904 39.8249C37.8312 41.4117 39.5784 43.0132 41.1466 44.7611C43.9591 47.8951 45.8661 51.5372 46.8718 55.61C47.3193 57.4206 47.6857 59.2437 47.771 61.1128C47.7965 61.6961 47.9159 62.2753 48.0032 62.938C49.2731 62.938 50.5707 62.938 51.9322 62.938C51.9322 64.2887 51.9322 65.5598 51.9322 66.8352C51.08 66.9962 3.00686 67.0714 0.0430454 66.9063C-0.0336602 65.6435 0.023869 64.3702 0.00682332 63.0175C1.34917 63.0175 2.64677 63.0175 3.98486 63.0175C4.07861 62.2669 4.19154 61.5916 4.24055 60.9121C4.4387 58.1084 5.03317 55.38 6.01117 52.7498C6.97212 50.1719 8.33577 47.7864 10.1064 45.6455C11.9665 43.3958 14.1526 41.4619 16.3004 39.4862C17.2272 38.6331 18.103 37.709 18.8892 36.7305C19.6179 35.8232 20.0142 34.7234 20.0163 33.5547C20.0185 32.1978 19.5028 30.9935 18.6442 29.9356C17.826 28.9279 16.8735 28.0519 15.9104 27.1738C14.1697 25.5869 12.4225 23.9854 10.8543 22.2375C8.04387 19.1035 6.13688 15.4635 5.12905 11.3907C4.6816 9.58014 4.31512 7.75701 4.22989 5.88788C4.20432 5.30456 4.085 4.72543 3.99764 4.06266C2.72774 4.06266 1.43014 4.06266 0.0686139 4.06266C0.0686139 2.71204 0.0686139 1.44087 0.0686139 0.165514C0.920898 0.00452689 48.9983 -0.0707399 51.9578 0.0944289C52.0367 1.35724 51.977 2.62841 51.9962 4.01876ZM9.88267 13.0215C20.7045 13.0215 31.3879 13.0215 42.0543 13.0215C43.0664 11.0123 44.0827 5.70808 43.7801 4.06475C41.5642 3.9184 8.98564 3.98112 8.07583 4.14838C8.29955 7.1716 8.73422 10.153 9.88267 13.0215ZM24.0583 34.6314C23.8836 35.1165 23.7366 35.3925 23.6897 35.6852C23.4766 36.9835 22.8523 38.1083 22.0639 39.1203C21.3139 40.082 20.4254 40.9413 19.5753 41.8236C17.777 43.6906 15.6761 45.2545 13.9822 47.2386C12.5652 48.8987 11.3678 50.6737 10.4388 52.6286C10.3024 52.9171 10.2001 53.2223 10.051 53.5966C10.2726 53.536 10.377 53.5171 10.4729 53.4774C13.5581 52.2334 16.6413 50.9832 19.7287 49.7475C21.0242 49.229 22.2706 48.5767 23.6641 48.307C23.9368 48.2547 24.0753 48.0582 24.0604 47.7718C24.0519 47.5982 24.0583 47.4247 24.0583 47.2491C24.0583 43.3854 24.0583 39.5217 24.0583 35.658C24.0583 35.3841 24.0583 35.1081 24.0583 34.6314ZM42.0159 53.6468C41.7602 53.0697 41.6026 52.685 41.4215 52.3129C39.9534 49.2938 37.8142 46.7808 35.3489 44.506C33.8787 43.1491 32.4171 41.7797 30.9852 40.3852C30.0541 39.4778 29.3126 38.4199 28.8268 37.2177C28.5157 36.4483 28.275 35.6496 27.998 34.8468C27.8211 37.1926 27.8936 47.431 28.0811 48.1377C32.7516 49.7831 37.2261 51.8508 42.0159 53.6468Z" fill="#C41129"/>
  </g>
  <defs>
    <clipPath id="clip0_7_14">
      <rect width="52" height="67" fill="white"/>
    </clipPath>
  </defs>
</svg>