<svg width="139" height="139" viewBox="0 0 139 139" fill="none" xmlns="http://www.w3.org/2000/svg">
<path d="M65.3054 79.7746H55.0322C54.5099 79.7746 54.0411 79.4933 53.7866 79.0513L48.6567 70.1577C48.4022 69.7157 48.4022 69.1666 48.6567 68.7112L53.7866 59.8176C54.0411 59.3756 54.5233 59.0943 55.0322 59.0943H65.3054C65.8143 59.0943 66.2965 59.3756 66.551 59.8176L71.6809 68.7112C71.9354 69.1532 71.9354 69.7023 71.6809 70.1577L66.551 79.0513C66.3099 79.5067 65.8277 79.7746 65.3054 79.7746ZM55.876 76.8949H64.475L68.7744 69.4479L64.475 62.0008H55.876L51.5766 69.4479L55.876 76.8949Z" fill="white"/>
<path d="M91.4367 25.7299C89.2535 26.5737 84.8737 28.248 84.4852 27.364C84.445 27.2702 84.4718 27.0693 84.5254 26.8282L89.5749 17.3319C90.5661 16.4747 92.5752 15.3362 94.37 15.3496C96.6603 15.363 101.375 14.8272 100.37 12.0681C99.3659 9.30892 95.3745 11.8672 93.861 12.6976C93.0975 13.1128 92.2136 13.4343 91.5305 13.662L94.9727 7.19268C94.9727 7.19268 96.6737 7.00516 97.9997 4.35316C98.2542 3.84419 98.3346 3.32183 98.281 2.82625C98.348 1.05825 96.9416 0.0536979 95.4549 0.00012207C95.4013 0.00012207 95.3611 0.00012207 95.3076 0.00012207C95.2138 0.00012207 95.1066 0.0135138 95.0129 0.0135138C94.9593 0.0135138 94.9057 0.0269106 94.8521 0.0269106C93.9815 0.16085 93.1645 0.616245 92.6957 1.48685C91.2894 4.09868 92.1064 5.5988 92.1064 5.5988L88.691 12.3092C88.4766 11.6127 88.2355 10.7019 88.1418 9.84468C87.9542 8.14365 87.7668 3.40219 84.9273 4.16565C82.0877 4.9291 84.3646 9.09462 85.6906 10.9564C86.722 12.4029 86.9497 14.7067 86.8292 16.0059L81.9537 25.596C81.7796 25.7969 81.6457 25.9308 81.5385 25.9442C80.5876 26.1317 79.4491 21.5912 78.8866 19.3142C78.324 17.0372 77.1855 9.08123 73.395 11.3582C69.6045 13.6352 73.7701 18.3632 74.7211 20.0777C75.672 21.7787 78.1365 27.8462 77.9356 30.8732C77.8552 32.1992 75.23 38.1997 72.3101 44.535L64.2871 60.2864L64.6086 60.7417C64.4076 61.157 64.2871 61.398 64.2871 61.398H65.064L65.372 61.8534C65.372 61.8534 65.4658 61.6793 65.6265 61.398H66.189L74.6005 45.5664C78.0963 39.5525 81.4983 33.994 82.5297 33.1636C84.9004 31.2616 91.276 29.8017 93.2181 29.6008C95.1602 29.3999 101.429 30.0964 101.121 25.6897C100.799 21.2563 93.6333 24.8861 91.4367 25.7299Z" fill="white"/>
<path d="M37.9681 20.5197C37.6065 22.8368 36.8698 27.4577 35.9054 27.364C35.7982 27.3506 35.6375 27.23 35.4634 27.0559L29.7576 17.9346C29.5165 16.6488 29.5298 14.3316 30.4406 12.7913C31.5925 10.809 33.4945 6.456 30.6014 5.96042C27.7083 5.45145 27.936 10.1929 27.8958 11.9073C27.8824 12.7779 27.7217 13.7021 27.561 14.412L23.6767 8.19721C23.6767 8.19721 24.3598 6.63012 22.7258 4.15223C22.4177 3.68345 22.0025 3.3486 21.5337 3.14769C20.0336 2.21011 18.4531 2.91999 17.6762 4.17902C17.6494 4.21921 17.6227 4.25939 17.5959 4.29957C17.5423 4.37993 17.5021 4.47369 17.462 4.56745C17.4352 4.62103 17.4217 4.66121 17.3949 4.71478C17.0735 5.53182 17.0735 6.46939 17.5825 7.31321C19.1362 9.84467 20.8506 9.88485 20.8506 9.88485L24.9625 16.2068C24.2527 16.0461 23.3419 15.805 22.5517 15.4567C20.9846 14.7737 16.7788 12.5636 16.0154 15.4032C15.2519 18.2427 19.9934 18.3632 22.2838 18.1489C24.0518 17.9882 26.1546 18.9258 27.2261 19.7026L33.0927 28.7168C33.1865 28.9579 33.2266 29.1588 33.1865 29.2525C32.8784 30.1633 28.3646 28.8775 26.1144 28.2346C23.8642 27.5917 16.4038 24.5914 16.4707 29.0114C16.5511 33.4314 22.7257 32.1858 24.6812 32.226C26.6368 32.2528 33.1194 33.1502 35.6375 34.8378C36.7492 35.5745 40.6335 40.8383 44.6517 46.5307L54.282 61.3445L54.8311 61.2909C55.0856 61.6793 55.2329 61.8936 55.2329 61.8936L55.6213 61.2239L56.1705 61.1703C56.1705 61.1703 56.0767 61.0096 55.9026 60.7283L56.1839 60.2461L46.6742 45.044C43.2185 39.0033 40.0978 33.2841 39.8969 31.9715C39.4415 28.9713 41.3701 22.7163 42.1604 20.9349C42.9506 19.1535 46.6876 14.0638 42.723 12.135C38.7583 10.1795 38.3298 18.2025 37.9681 20.5197Z" fill="white"/>
<path d="M6.72024 64.2376C8.54182 65.7109 12.1849 68.6576 11.609 69.4479C11.542 69.5282 11.3679 69.6086 11.1134 69.6755L0.371515 70.0506C-0.860729 69.622 -2.85644 68.4433 -3.74044 66.8896C-4.87893 64.8939 -7.69164 61.0766 -9.58019 63.3402C-11.4687 65.5904 -7.2497 67.7736 -5.78976 68.6576C-5.05309 69.113 -4.32983 69.7157 -3.79407 70.1979L-11.1205 70.4524C-11.1205 70.4524 -12.1385 69.0728 -15.0986 69.2469C-15.6611 69.2871 -16.1567 69.4746 -16.5719 69.7693C-18.139 70.5997 -18.2997 72.3276 -17.6166 73.6268C-17.5898 73.667 -17.5764 73.7071 -17.5496 73.7607C-17.496 73.8411 -17.4425 73.9214 -17.3889 74.0152C-17.3621 74.0554 -17.3353 74.0956 -17.2951 74.1357C-16.746 74.8188 -15.9423 75.301 -14.9512 75.2742C-11.9911 75.1939 -11.0937 73.7205 -11.0937 73.7205L-3.56631 73.3187C-4.06189 73.8545 -4.71821 74.5108 -5.42809 75.0331C-6.80767 76.0511 -10.8125 78.5825 -8.73644 80.6586C-6.66038 82.7347 -4.18243 78.6897 -3.23146 76.6002C-2.49479 74.9796 -0.619673 73.6402 0.585783 73.091L11.3278 72.5285C11.5823 72.5686 11.7698 72.6356 11.8502 72.716C12.4931 73.4393 9.11772 76.694 7.43008 78.328C5.74244 79.9621 -0.579466 84.9179 3.29139 87.0609C7.14885 89.2039 9.17136 83.2302 10.1759 81.556C11.1805 79.8818 15.1986 74.7251 17.9176 73.3723C19.1096 72.7829 25.6191 72.0463 32.5572 71.4168L50.2104 70.4926L50.4382 69.997C50.9069 69.9702 51.1614 69.9434 51.1614 69.9434L50.773 69.2737L51.0007 68.7782C51.0007 68.7782 50.8132 68.7782 50.4917 68.7915L50.2104 68.3094L32.2893 68.9389C25.3378 68.9121 18.815 68.7514 17.5827 68.2692C14.7566 67.1575 10.2964 62.3758 9.15795 60.7954C8.00607 59.2149 5.47456 53.4421 1.818 55.9199C-1.83855 58.371 4.89866 62.7509 6.72024 64.2376Z" fill="white"/>
<path d="M28.9545 113.152C31.1377 112.309 35.5175 110.634 35.906 111.518C35.9462 111.612 35.9194 111.813 35.8524 112.054L30.8029 121.55C29.8117 122.408 27.8026 123.546 26.0078 123.533C23.7174 123.519 19.0028 124.055 20.0073 126.814C21.0119 129.573 25.0033 127.015 26.5168 126.185C27.2802 125.769 28.1643 125.448 28.8474 125.22L25.4051 131.69C25.4051 131.69 23.7041 131.877 22.3781 134.529C22.1236 135.038 22.0432 135.56 22.0968 136.056C22.0298 137.824 23.4362 138.829 24.9229 138.882C24.9765 138.882 25.0167 138.882 25.0703 138.882C25.1641 138.882 25.2712 138.869 25.3649 138.869C25.4185 138.869 25.4721 138.855 25.5256 138.855C26.3963 138.735 27.2133 138.266 27.6821 137.395C29.0884 134.784 28.2714 133.283 28.2714 133.283L31.6869 126.573C31.9012 127.27 32.1423 128.18 32.236 129.038C32.4236 130.739 32.6111 135.48 35.4506 134.717C38.2901 133.953 36.0132 129.788 34.6872 127.926C33.6558 126.479 33.4281 124.176 33.5486 122.876L38.424 113.286C38.5982 113.085 38.7321 112.951 38.8393 112.938C39.7902 112.751 40.9287 117.291 41.4912 119.568C42.0538 121.845 43.1923 129.801 46.9828 127.524C50.7733 125.247 46.6078 120.519 45.6568 118.805C44.7058 117.104 42.2413 111.036 42.4422 108.009C42.5226 106.683 45.1478 100.683 48.0677 94.3472L56.0907 78.5959L55.7692 78.1405C55.9701 77.7253 56.0907 77.4842 56.0907 77.4842H55.3138L54.9924 77.0288C54.9924 77.0288 54.8986 77.203 54.7379 77.4842H54.1754L45.7639 93.3159C42.2681 99.3298 38.866 104.888 37.8347 105.719C35.464 107.621 29.0885 109.081 27.1463 109.281C25.2042 109.482 18.9358 108.786 19.2439 113.193C19.5921 117.626 26.7579 113.983 28.9545 113.152Z" fill="white"/>
<path d="M82.4229 118.349C82.7845 116.032 83.5211 111.411 84.4855 111.505C84.5927 111.518 84.7534 111.639 84.9275 111.813L90.6333 120.934C90.8744 122.22 90.8611 124.524 89.9503 126.077C88.7984 128.06 86.8965 132.413 89.7895 132.908C92.6826 133.417 92.4549 128.676 92.4951 126.961C92.5085 126.091 92.6692 125.167 92.8299 124.457L96.7142 130.672C96.7142 130.672 96.0311 132.239 97.6651 134.717C97.9732 135.185 98.3884 135.52 98.8572 135.721C100.357 136.659 101.938 135.949 102.715 134.69C102.741 134.65 102.768 134.609 102.795 134.569C102.849 134.489 102.889 134.395 102.929 134.301C102.956 134.248 102.969 134.208 102.996 134.154C103.317 133.337 103.317 132.399 102.808 131.556C101.255 129.024 99.5403 128.997 99.5403 128.997L95.4284 122.675C96.1382 122.836 97.049 123.077 97.8393 123.425C99.4063 124.109 103.612 126.319 104.376 123.479C105.139 120.64 100.398 120.519 98.1071 120.733C96.3391 120.894 94.2363 119.956 93.1648 119.193L87.2982 110.179C87.2045 109.938 87.1643 109.737 87.2044 109.643C87.5125 108.732 92.0263 110.018 94.2765 110.661C96.5267 111.304 103.987 114.304 103.92 109.884C103.84 105.464 97.6652 106.71 95.7097 106.67C93.7541 106.643 87.2715 105.745 84.7534 104.058C83.6417 103.321 79.7574 98.0573 75.7392 92.3649L66.109 77.5511L65.5598 77.6047C65.3053 77.2163 65.158 77.002 65.158 77.002L64.7696 77.6717L64.2204 77.7253C64.2204 77.7253 64.3142 77.886 64.4883 78.1673L64.207 78.6494L73.7168 93.8516C77.1724 99.8923 80.2932 105.611 80.4941 106.924C80.9495 109.924 79.0208 116.179 78.2306 117.961C77.4403 119.742 73.7033 124.832 77.6679 126.761C81.6192 128.689 82.0612 120.666 82.4229 118.349Z" fill="white"/>
<path d="M113.671 74.6447C111.85 73.1713 108.206 70.2247 108.782 69.4478C108.849 69.3675 109.023 69.2871 109.278 69.2201L120.02 68.8451C121.252 69.2737 123.248 70.4524 124.132 72.0061C125.27 74.0018 128.083 77.819 129.972 75.5555C131.86 73.2919 127.641 71.1221 126.181 70.2381C125.444 69.7827 124.721 69.1799 124.185 68.6978L131.512 68.4433C131.512 68.4433 132.53 69.8228 135.49 69.6487C136.052 69.6085 136.548 69.421 136.963 69.1264C138.53 68.2959 138.691 66.5681 138.008 65.2689C137.981 65.2287 137.968 65.1885 137.941 65.135C137.887 65.0546 137.834 64.9742 137.78 64.8805C137.753 64.8403 137.727 64.8001 137.687 64.7599C137.137 64.0768 136.334 63.5947 135.343 63.6214C132.382 63.7018 131.485 65.1751 131.485 65.1751L123.958 65.577C124.453 65.0412 125.11 64.3849 125.819 63.8625C127.199 62.8446 131.204 60.3131 129.128 58.2371C127.052 56.161 124.574 60.206 123.623 62.2954C122.886 63.9161 121.011 65.2555 119.806 65.8047L109.064 66.3672C108.809 66.327 108.622 66.26 108.541 66.1797C107.898 65.4564 111.274 62.2017 112.961 60.5676C114.649 58.9336 120.971 53.9778 117.1 51.8348C113.243 49.6917 111.22 55.6654 110.216 57.3397C109.211 59.0139 105.193 64.1706 102.474 65.5234C101.282 66.1127 94.7723 66.8494 87.8342 67.4789L70.181 68.4031L69.9532 68.8987C69.4844 68.9255 69.23 68.9522 69.23 68.9522L69.6184 69.6219L69.3907 70.1175C69.3907 70.1175 69.5782 70.1175 69.8997 70.1041L70.181 70.5863L88.1021 69.9568C95.0536 69.9836 101.576 70.1443 102.809 70.6265C105.635 71.7382 110.095 76.5198 111.233 78.1003C112.385 79.6808 114.917 85.4536 118.573 82.9757C122.23 80.5112 115.493 76.118 113.671 74.6447Z" fill="white"/>
<path d="M73.4626 44.4144L60.1087 32.9358C59.7337 32.5875 59.1309 32.5741 58.7425 32.9358L45.8978 45.6467C45.8576 45.6735 45.8308 45.7136 45.7906 45.7538C45.1343 46.4637 45.1879 47.562 45.8978 48.2183C46.6076 48.8746 47.7059 48.821 48.3622 48.1111L59.439 35.0386L71.199 46.6914C71.2258 46.7182 71.2525 46.745 71.2793 46.7718C71.9356 47.3745 72.9535 47.3343 73.5562 46.6914C74.1456 46.0351 74.1055 45.0171 73.4626 44.4144Z" fill="white"/>
<path d="M59.6532 34.3289C59.4121 34.3289 59.171 34.2083 59.0236 34.0208L53.1705 27.3774C52.9562 27.0961 52.9562 26.7077 53.1705 26.4131L59.0236 19.7697C59.3183 19.3812 59.988 19.3812 60.2827 19.7697L66.1358 26.4131C66.3501 26.6943 66.3501 27.0828 66.1358 27.3774L60.2827 34.0208C60.1354 34.2083 59.8943 34.3289 59.6532 34.3289ZM55.5814 26.8818L59.6532 32.226L63.7249 26.8818L59.6532 21.5377L55.5814 26.8818Z" fill="white"/>
<path d="M45.148 45.4458L28.5261 51.2722C28.0305 51.4329 27.7225 51.9419 27.843 52.4508L32.4372 69.93C32.4506 69.9702 32.4639 70.0237 32.4773 70.0639C32.7586 70.9881 33.7363 71.4971 34.6605 71.2024C35.5847 70.9211 36.0936 69.9434 35.799 69.0192L30.0129 52.8929L45.9918 48.5398C46.032 48.5264 46.0722 48.5264 46.1123 48.513C46.9562 48.2452 47.4384 47.3478 47.1705 46.5039C46.9026 45.6467 46.0052 45.1779 45.148 45.4458Z" fill="white"/>
<path d="M29.5169 52.3572C29.3964 52.5715 29.1821 52.7189 28.9276 52.7457L20.2483 54.5003C19.9 54.5405 19.5518 54.3529 19.4178 54.0181L16.5917 45.6201C16.4042 45.1647 16.7256 44.5887 17.2212 44.5352L25.9005 42.7806C26.2488 42.7404 26.597 42.9279 26.731 43.2627L29.5571 51.6607C29.6508 51.875 29.6375 52.1429 29.5169 52.3572ZM21.0385 52.1563L27.6953 51.2991L25.1103 45.0977L18.4535 45.9549L21.0385 52.1563Z" fill="white"/>
<path d="M31.8874 70.4658L28.6193 87.7708C28.5121 88.2798 28.7934 88.7887 29.3024 88.9495L46.7414 93.7177C46.7815 93.7311 46.8351 93.7445 46.8753 93.7579C47.8128 93.9722 48.7504 93.3829 48.9513 92.4319C49.1656 91.4943 48.5763 90.5567 47.6253 90.3558L30.7624 87.302L34.9814 71.2962C34.9948 71.256 35.0082 71.2159 35.0082 71.1757C35.2091 70.3051 34.66 69.4479 33.8027 69.2469C32.9455 69.0594 32.0883 69.5952 31.8874 70.4658Z" fill="white"/>
<path d="M30.0525 87.4629C30.173 87.6772 30.1865 87.9317 30.0927 88.1594L27.2665 96.5574C27.1326 96.8922 26.7844 97.0797 26.4361 97.0395L17.7568 95.2849C17.2613 95.218 16.9399 94.6554 17.1274 94.2L19.9535 85.802C20.0874 85.4672 20.4357 85.2796 20.7839 85.3198L29.4632 87.0744C29.7176 87.1012 29.9319 87.2486 30.0525 87.4629ZM25.6459 94.709L28.2309 88.5076L21.5741 87.6504L18.9891 93.8518L25.6459 94.709Z" fill="white"/>
<path d="M46.9288 94.4678L60.2825 105.946C60.6576 106.295 61.2603 106.308 61.6487 105.946L74.4935 93.2355C74.5337 93.2087 74.5605 93.1686 74.6007 93.1284C75.257 92.4185 75.2034 91.3202 74.4935 90.6639C73.7836 90.0076 72.6854 90.0612 72.0291 90.771L60.9522 103.844L49.1923 92.1908C49.1655 92.164 49.1387 92.1372 49.1119 92.1104C48.4556 91.5077 47.4378 91.5479 46.835 92.1908C46.2457 92.8337 46.2859 93.8516 46.9288 94.4678Z" fill="white"/>
<path d="M60.7382 104.554C60.9793 104.554 61.2203 104.674 61.3676 104.862L67.2208 111.505C67.4351 111.786 67.4351 112.175 67.2208 112.469L61.3676 119.113C61.073 119.501 60.4033 119.501 60.1086 119.113L54.2555 112.469C54.0412 112.188 54.0412 111.8 54.2555 111.505L60.1086 104.862C60.2559 104.661 60.4971 104.554 60.7382 104.554ZM64.8099 111.987L60.7382 106.643L56.6664 111.987L60.7382 117.331L64.8099 111.987Z" fill="white"/>
<path d="M75.2307 93.4364L91.8526 87.61C92.3482 87.4493 92.6563 86.9403 92.5357 86.4313L87.955 68.9522C87.9416 68.912 87.9282 68.8585 87.9148 68.8183C87.6335 67.8941 86.6558 67.3851 85.7316 67.6798C84.8074 67.9611 84.2985 68.9388 84.5931 69.863L90.3793 85.9893L74.4003 90.3424C74.3601 90.3558 74.3199 90.3558 74.2798 90.3692C73.4359 90.6371 72.9537 91.5344 73.2216 92.3783C73.4895 93.2221 74.3869 93.6909 75.2307 93.4364Z" fill="white"/>
<path d="M90.8744 86.5251C90.995 86.3108 91.2093 86.1635 91.4638 86.1367L100.143 84.3821C100.491 84.3419 100.84 84.5294 100.973 84.8643L103.8 93.2623C103.987 93.7177 103.666 94.2936 103.17 94.3472L94.4907 96.1018C94.1425 96.142 93.7942 95.9545 93.6603 95.6196L90.8342 87.2216C90.727 86.9939 90.7539 86.7394 90.8744 86.5251ZM99.3527 86.7126L92.696 87.5698L95.281 93.7713L101.938 92.914L99.3527 86.7126Z" fill="white"/>
<path d="M88.4897 68.4165L91.7578 51.1114C91.865 50.6025 91.5837 50.0935 91.0747 49.9328L73.6358 45.1645C73.5956 45.1511 73.542 45.1377 73.5019 45.1244C72.5643 44.9101 71.6267 45.4994 71.4258 46.4504C71.2115 47.3879 71.8008 48.3255 72.7518 48.5264L89.6148 51.5802L85.3957 67.5726C85.3823 67.6128 85.3689 67.653 85.3689 67.6932C85.168 68.5638 85.7172 69.421 86.5744 69.6219C87.4316 69.8228 88.3022 69.2737 88.4897 68.4165Z" fill="white"/>
<path d="M90.3253 51.4061C90.2048 51.1918 90.1914 50.9373 90.2852 50.7096L93.1113 42.3116C93.2452 41.9767 93.5935 41.7892 93.9417 41.8294L102.621 43.584C103.117 43.651 103.438 44.2135 103.251 44.6689L100.424 53.067C100.29 53.4018 99.9422 53.5893 99.5939 53.5491L90.9147 51.7945C90.6736 51.7677 90.4459 51.6204 90.3253 51.4061ZM94.7319 44.16L92.1469 50.3614L98.8037 51.2186L101.389 45.0172L94.7319 44.16Z" fill="white"/>
</svg>
