<svg xmlns="http://www.w3.org/2000/svg" width="87" height="75" viewBox="0 0 87 75" fill="none">
  <path d="M0 29.2108C0.43348 28.4021 0.716574 27.4528 1.34468 26.8287C2.0524 26.1167 2.99013 25.5015 3.94556 25.1938C29.1759 16.8874 54.4239 8.62485 79.6631 0.353564C83.1132 -0.771543 86.2449 0.863378 86.9084 4.19475C87.0765 5.021 86.9969 5.94394 86.8023 6.77898C83.2371 21.9328 79.6454 37.0777 76.0537 52.2227C74.6117 58.3053 73.152 64.3879 71.7277 70.4793C70.7015 74.8743 66.3225 76.4037 62.7927 73.547C57.6794 69.407 52.575 65.2581 47.4882 61.0829C46.9486 60.6435 46.6036 60.5556 45.9932 61.0214C41.5787 64.3528 37.1201 67.6402 32.6791 70.9452C32.4314 71.1298 32.1837 71.3144 31.9183 71.4814C30.2109 72.5274 28.4328 71.9121 27.9108 69.9871C27.3712 67.983 26.9731 65.9438 26.5308 63.9133C25.0888 57.2769 23.6557 50.6405 22.2402 44.0042C22.1252 43.4592 21.8686 43.1604 21.3467 42.9406C15.6495 40.4882 9.9789 37.9479 4.25519 35.5571C2.16741 34.6869 0.619258 33.4563 0 31.2413C0 30.5644 0 29.8876 0 29.2108ZM66.5437 69.9959C71.6835 48.2849 76.788 26.7232 81.9278 5.00342C56.2286 13.4241 30.7152 21.7745 5.03368 30.1953C5.38755 30.3886 5.53793 30.5029 5.71486 30.5732C11.6597 33.1662 17.6135 35.7417 23.5583 38.3523C24.0803 38.5808 24.4518 38.449 24.8942 38.2029C33.2188 33.5969 41.5434 29.0086 49.8679 24.4115C54.3443 21.9415 58.8118 19.4804 63.2793 17.0016C64.3674 16.3951 65.4467 16.1578 66.526 16.9753C67.906 18.03 67.8795 19.6825 66.4818 21.1417C57.9095 30.0458 49.3371 38.9588 40.7649 47.8629C40.5702 48.0651 40.3845 48.2761 40.1544 48.531C48.9391 55.6772 57.6883 62.7882 66.5437 69.9959ZM30.6886 58.7976C30.8302 58.4372 30.901 58.2878 30.9452 58.1383C31.8475 55.0443 32.7676 51.959 33.6257 48.8474C33.8911 47.8981 34.3334 47.107 35.0146 46.395C40.1544 41.0859 45.2677 35.7593 50.3899 30.4326C50.5845 30.2304 50.7526 30.0195 50.9384 29.8085C50.9118 29.7733 50.8765 29.747 50.8499 29.7118C42.9853 34.054 35.1119 38.3962 27.212 42.756C28.362 48.0563 29.5032 53.3039 30.6886 58.7976ZM34.9527 62.8673C37.6066 60.8984 40.0837 59.0525 42.6226 57.1627C40.986 55.8266 39.4113 54.5521 37.7482 53.1984C36.8193 56.3979 35.9258 59.5096 34.9527 62.8673Z" fill="#CB2F44"/>
</svg>