<svg xmlns="http://www.w3.org/2000/svg" width="73" height="73" viewBox="0 0 73 73" fill="none">
  <path fill-rule="evenodd" clip-rule="evenodd" d="M34.3687 0.106284C33.058 0.322062 32.5785 0.454751 31.3908 0.930511C29.6693 1.62007 28.06 2.66206 26.7259 3.95101C25.1332 5.48979 23.8341 7.59734 23.102 9.82988C22.5024 11.6586 22.3076 14.5615 22.6626 16.377C22.9545 17.87 23.0751 18.3461 23.2756 18.7975C23.373 19.0169 23.4234 19.1446 23.6197 19.6705C23.693 19.8669 23.8748 20.2496 24.0237 20.521C24.1725 20.7924 24.2944 21.0333 24.2944 21.0562C24.2944 21.0792 21.5586 21.1071 18.2148 21.1183C12.9048 21.1361 12.1275 21.1537 12.0738 21.2576C12.04 21.3231 11.9361 21.7338 11.843 22.1703C11.6151 23.2381 11.3026 24.5445 11.162 25.0165C11.0988 25.2288 11.0471 25.4631 11.0471 25.537C11.0471 25.6674 10.9235 26.2033 10.5702 27.6064C10.4768 27.9774 10.3685 28.4595 10.3296 28.6777C10.2906 28.896 10.114 29.6638 9.93722 30.384C9.76033 31.1042 9.57923 31.872 9.5348 32.0902C9.44072 32.552 9.36235 32.8747 9.19767 33.479C9.13223 33.7191 9.0418 34.094 8.99666 34.3123C8.95153 34.5305 8.802 35.1733 8.66445 35.7407C8.37959 36.9154 8.30336 37.2452 8.18747 37.8041C8.00518 38.6828 7.96091 38.8727 7.72492 39.7881C7.58991 40.3118 7.47901 40.8048 7.47846 40.8836C7.4779 40.9623 7.39287 41.3372 7.28943 41.7168C7.18606 42.0964 7.02273 42.7641 6.92651 43.2005C6.83029 43.637 6.62563 44.4941 6.47182 45.1052C6.31801 45.7162 6.14651 46.4662 6.09082 46.7717C6.03506 47.0772 5.95137 47.4701 5.90481 47.6447C5.65874 48.5676 5.40498 49.6162 5.29979 50.1445C5.23459 50.4718 5.12258 50.9539 5.05087 51.2158C4.91221 51.7219 4.82852 52.0829 4.70105 52.7237C4.55168 53.4747 4.48473 53.758 4.23628 54.69C4.09921 55.2041 3.98712 55.7015 3.98712 55.7954C3.98712 55.8893 3.95372 56.0758 3.91295 56.2098C3.8721 56.3439 3.78056 56.6857 3.70948 56.9694C3.63841 57.2531 3.54964 57.5924 3.51228 57.7233C3.47492 57.8543 3.40321 58.1757 3.35299 58.4375C3.30278 58.6994 3.2302 59.0387 3.19173 59.1915C3.01428 59.8957 1.90198 64.6447 1.72318 65.4609C1.65155 65.7882 1.51241 66.3596 1.41413 66.7306C1.31577 67.1016 1.19202 67.6373 1.13895 67.921C1.08596 68.2047 1.01068 68.544 0.971654 68.6749C0.875988 68.9955 0.531082 70.4395 0.374494 71.1747C0.304767 71.5021 0.213781 71.9128 0.172294 72.0874C0.130807 72.262 0.0750416 72.5388 0.0483883 72.7024L0 73H36.5H73L72.9988 72.8214C72.9981 72.7233 72.9318 72.375 72.8514 72.0477C72.7711 71.7203 72.6614 71.2204 72.6078 70.9367C72.5542 70.6529 72.3907 69.9209 72.2445 69.3098C72.0982 68.6987 71.943 68.0202 71.8994 67.802C71.8558 67.5837 71.8021 67.3159 71.7801 67.2068C71.758 67.0976 71.6821 66.7762 71.6113 66.4925C71.5406 66.2088 71.4534 65.8338 71.4175 65.6593C71.3816 65.4847 71.2938 65.0561 71.2223 64.7069C71.1509 64.3578 71.0413 63.8757 70.9787 63.6356C70.7014 62.571 70.4605 61.5197 70.4605 61.3738C70.4606 61.2865 70.3413 60.733 70.1955 60.1438C70.0498 59.5545 69.8865 58.8582 69.8326 58.5963C69.5455 57.2001 69.4013 56.5728 69.119 55.492C69.0721 55.3124 69.0337 55.0828 69.0337 54.9818C69.0337 54.8809 68.9992 54.6886 68.957 54.5546C68.8666 54.2682 68.5357 52.85 68.4001 52.1681C68.348 51.9063 68.2205 51.3349 68.1167 50.8984C68.013 50.4619 67.8547 49.7655 67.7648 49.3509C67.5229 48.2344 67.2016 46.8259 67.086 46.3749C67.0301 46.1567 66.9621 45.8353 66.935 45.6607C66.8901 45.3716 66.6576 44.3609 66.3782 43.2402C66.3184 43.0001 66.2461 42.643 66.2177 42.4466C66.1893 42.2502 66.1168 41.8931 66.0567 41.653C65.9303 41.149 65.6223 39.8066 65.383 38.7167C65.2919 38.3021 65.1332 37.6057 65.0304 37.1692C64.9275 36.7327 64.7832 36.0899 64.7096 35.7407C64.6362 35.3916 64.5246 34.8916 64.4616 34.6297C64.3986 34.3678 64.3175 34.0107 64.2812 33.8361C64.0539 32.7401 63.9166 32.1148 63.6718 31.0585C63.52 30.4038 63.3618 29.7074 63.3203 29.511C63.2789 29.3146 63.139 28.7075 63.0095 28.1619C62.88 27.6163 62.754 27.0449 62.7294 26.8922C62.6857 26.6211 62.5173 25.8625 62.377 25.305C62.3385 25.1522 62.267 24.8665 62.2179 24.6701C62.1688 24.4737 62.0782 24.0273 62.0166 23.6781C61.9549 23.3289 61.8702 22.9361 61.8282 22.8051C61.7864 22.6742 61.6898 22.2814 61.6137 21.9322C61.5378 21.583 61.4407 21.2529 61.3981 21.1986C61.3377 21.1217 59.947 21.0954 55.1039 21.0796L48.8874 21.0592L48.9932 20.8608C49.2488 20.3818 49.433 20.008 49.5405 19.7498C49.6041 19.597 49.7007 19.3649 49.7551 19.234C49.9029 18.8786 50.1635 18.0814 50.2349 17.7658C50.9152 14.7637 50.9233 12.9574 50.2677 10.5044C50.2093 10.2862 50.1391 10.0184 50.1117 9.90924C50.0842 9.80012 50.0327 9.63942 49.9971 9.55212C49.9615 9.46483 49.8874 9.26841 49.8325 9.11564C49.7285 8.82606 49.5146 8.32062 49.2954 7.84589C48.8412 6.86215 47.7695 5.32829 46.8731 4.37892C44.6823 2.05892 41.9321 0.622835 38.6178 0.0681121C37.9734 -0.0397373 35.0987 -0.0139455 34.3687 0.106284ZM38.0573 6.46544C38.8953 6.60376 39.2603 6.72827 40.1197 7.1688C41.2392 7.74265 42.1693 8.53735 42.8682 9.51712C43.5465 10.4682 43.8156 11.0607 44.1812 12.408C44.386 13.1629 44.3604 15.0793 44.1346 15.9009C43.8628 16.8897 43.7437 17.1867 43.32 17.9315C42.8063 18.8347 41.7356 19.9807 40.9146 20.5061C39.7859 21.2284 39.4317 21.3695 37.8436 21.7289C37.3687 21.8364 35.9007 21.838 35.4152 21.7315C35.2104 21.6867 34.8644 21.613 34.6463 21.5679C33.9075 21.4152 32.6744 20.8325 31.9746 20.3053C30.4995 19.1941 29.3068 17.3348 29.0063 15.6783C28.7755 14.4062 28.8713 12.5679 29.2187 11.5981C29.4134 11.0549 30.0236 9.85345 30.2575 9.55315C30.6095 9.10112 31.5471 8.15627 31.9455 7.85208C32.3866 7.51528 33.494 6.92032 34.0513 6.72074C34.2477 6.65042 34.6225 6.55186 34.8843 6.5017C36.2299 6.24394 36.684 6.23871 38.0573 6.46544ZM21.8945 39.3516C21.9054 43.6945 21.9318 47.2944 21.9532 47.3514C21.9773 47.4154 22.0351 47.4305 22.104 47.3911C22.2097 47.3307 25.4278 44.2385 27.2263 42.4693L28.056 41.653H31.9613C34.1295 41.653 35.8857 41.6841 35.9097 41.723C35.9334 41.7614 35.6061 42.1097 35.1823 42.4968C34.7584 42.8838 34.3368 43.272 34.2453 43.3592C34.1538 43.4465 33.7604 43.8026 33.3711 44.1504C32.9817 44.4982 32.449 44.9823 32.1872 45.2261C31.3853 45.9731 30.4697 46.8312 29.8868 47.382C29.0633 48.16 28.823 48.3804 28.3201 48.8185C28.0692 49.0371 27.864 49.2541 27.864 49.3006C27.864 49.3884 28.7906 50.3411 33.6445 55.2433L36.5322 58.1598H32.4059H28.2797L27.9873 57.8225C27.8265 57.637 27.3301 57.1103 26.8841 56.652C26.438 56.1937 25.7729 55.4973 25.406 55.1044C23.8233 53.41 22.1457 51.7317 22.0347 51.7317C21.9294 51.7317 21.9146 52.1284 21.9146 54.9457V58.1598H18.9796H16.0445V44.9133C16.0445 37.6277 16.0664 31.6098 16.0931 31.5402C16.1365 31.4271 16.4458 31.4159 19.0083 31.4345L21.8749 31.4553L21.8945 39.3516ZM48.0299 41.4014C48.3231 41.4789 48.5878 41.5672 48.6183 41.5977C48.6487 41.6281 48.7324 41.653 48.8042 41.653C49.1576 41.653 50.1364 42.2904 50.8914 43.0123C51.0225 43.1377 51.1602 43.2402 51.1973 43.2402C51.2345 43.2402 51.2655 42.9278 51.2661 42.5458C51.2668 42.1639 51.2959 41.8063 51.3309 41.7512C51.3806 41.6729 52.0173 41.6556 54.2449 41.6718L57.0953 41.6927V50.0651C57.0953 58.0783 57.0787 58.9423 56.9037 60.0247C56.627 61.7375 55.8521 63.0782 54.4108 64.3386C52.8012 65.746 50.2576 66.5767 47.5763 66.5705C46.674 66.5684 45.025 66.3809 44.4033 66.2097C44.1415 66.1376 43.8202 66.0512 43.6894 66.0177C43.5585 65.9842 43.2553 65.8781 43.0156 65.7817C40.7509 64.8719 38.7465 62.8114 38.2553 60.888C38.0725 60.1723 37.8307 60.2231 41.4138 60.2231C44.946 60.2231 44.6417 60.1731 44.9625 60.8063C45.1575 61.1914 45.4735 61.4622 46.0294 61.7208C46.4227 61.9037 46.5636 61.924 47.4573 61.9266C48.5003 61.9295 48.8319 61.8575 49.4855 61.4861C49.8604 61.273 50.5035 60.6714 50.7085 60.3422C51.0704 59.7608 51.2632 58.708 51.2643 57.3067C51.265 56.4587 51.2125 56.412 50.7297 56.8309C49.9015 57.5494 49.3637 57.8722 48.5282 58.1519C46.801 58.7303 45.0003 58.6941 43.0646 58.0421C42.721 57.9264 42.3104 57.7529 42.1524 57.6566C41.9943 57.5604 41.7668 57.4318 41.6469 57.371C41.527 57.31 41.1445 57.0326 40.7969 56.7543C39.4568 55.6816 38.4643 53.9407 38.0917 52.0094C37.9525 51.2877 37.9509 49.0135 38.0892 48.2795C38.4394 46.4201 39.2123 44.9054 40.4353 43.6819C41.5818 42.5349 42.7175 41.8708 44.1893 41.4868C44.9381 41.2915 45.1825 41.2651 46.2674 41.2629C47.1989 41.261 47.6262 41.2946 48.0299 41.4014ZM47.4289 46.0727C47.4176 46.084 47.2677 46.1136 47.0957 46.1385C46.2244 46.2647 45.4181 46.7739 44.8546 47.5537C44.3668 48.2288 44.1945 48.6815 44.0706 49.614C43.9967 50.1702 44.2567 51.299 44.5814 51.8318C45.0979 52.6791 45.7661 53.232 46.6244 53.5223C47.0505 53.6665 48.5982 53.6998 48.8652 53.5706C48.9416 53.5336 49.2121 53.4024 49.4661 53.2792C50.8403 52.6128 51.7194 50.8391 51.433 49.3112C51.2915 48.5565 51.2897 48.551 51.0095 47.9545C50.9563 47.8412 50.7029 47.5195 50.4465 47.2395C49.9037 46.6469 49.1599 46.2482 48.3299 46.1051C47.8734 46.0263 47.489 46.0125 47.4289 46.0727Z" fill="#2D4F92"/>
</svg>